<svg width="25" height="24" viewBox="0 0 25 24" fill="none" xmlns="http://www.w3.org/2000/svg">
    <path d="M19.74 5.58006H19.34L15.96 2.20006C15.69 1.93006 15.25 1.93006 14.97 2.20006C14.7 2.47006 14.7 2.91006 14.97 3.19006L17.36 5.58006H7.64L10.03 3.19006C10.3 2.92006 10.3 2.48006 10.03 2.20006C9.76 1.93006 9.32 1.93006 9.04 2.20006L5.67 5.58006H5.27C4.37 5.58006 2.5 5.58006 2.5 8.14006C2.5 9.11006 2.7 9.75006 3.12 10.1701C3.36 10.4201 3.65 10.5501 3.96 10.6201C4.25 10.6901 4.56 10.7001 4.86 10.7001H20.14C20.45 10.7001 20.74 10.6801 21.02 10.6201C21.86 10.4201 22.5 9.82006 22.5 8.14006C22.5 5.58006 20.63 5.58006 19.74 5.58006Z" fill="white"/>
    <path d="M19.55 12H5.37003C4.75003 12 4.28003 12.55 4.38003 13.16L5.22003 18.3C5.50003 20.02 6.25003 22 9.58003 22H15.19C18.56 22 19.16 20.31 19.52 18.42L20.53 13.19C20.65 12.57 20.18 12 19.55 12ZM11.11 18.45C11.11 18.84 10.8 19.15 10.42 19.15C10.03 19.15 9.72003 18.84 9.72003 18.45V15.15C9.72003 14.77 10.03 14.45 10.42 14.45C10.8 14.45 11.11 14.77 11.11 15.15V18.45ZM15.39 18.45C15.39 18.84 15.08 19.15 14.69 19.15C14.31 19.15 13.99 18.84 13.99 18.45V15.15C13.99 14.77 14.31 14.45 14.69 14.45C15.08 14.45 15.39 14.77 15.39 15.15V18.45Z" fill="white"/>
</svg>
