<?xml version="1.0" encoding="UTF-8" standalone="no"?>
<svg
   xmlns:dc="http://purl.org/dc/elements/1.1/"
   xmlns:cc="http://creativecommons.org/ns#"
   xmlns:rdf="http://www.w3.org/1999/02/22-rdf-syntax-ns#"
   xmlns:svg="http://www.w3.org/2000/svg"
   xmlns="http://www.w3.org/2000/svg"
   viewBox="0 0 8 6.6666665"
   height="6.6666665"
   width="8"
   xml:space="preserve"
   id="svg2"
   version="1.1"><metadata
     id="metadata8"><rdf:RDF><cc:Work
         rdf:about=""><dc:format>image/svg+xml</dc:format><dc:type
           rdf:resource="http://purl.org/dc/dcmitype/StillImage" /></cc:Work></rdf:RDF></metadata><defs
     id="defs6" /><g
     transform="matrix(1.3333333,0,0,-1.3333333,0,6.6666667)"
     id="g10"><g
       transform="scale(0.1)"
       id="g12"><path
         id="path14"
         style="fill:#231f20;fill-opacity:1;fill-rule:evenodd;stroke:none"
         d="m 12.7852,26.6641 h 3.5429 c -0.3593,-1.043 -0.5625,-2.1602 -0.5625,-3.3243 V 8.57031 c 0,-0.51172 0.086,-1 0.2422,-1.45312 H 9.55078 c -2.29297,0 -4.16406,1.90625 -4.16406,4.23831 v 7.7812 c 0,4.1446 3.32812,7.5274 7.39848,7.5274 z m 31.1211,0 h 3.5429 c 4.0742,0 7.3985,-3.3828 7.3985,-7.5274 v -7.7812 c 0,-2.33206 -1.8711,-4.23831 -4.1641,-4.23831 h -6.457 c 0.1562,0.45312 0.2422,0.9414 0.2422,1.45312 V 23.3398 c 0,1.1641 -0.1993,2.2813 -0.5625,3.3243 z m -18.3594,3.7031 h 9.1406 c 3.8008,0 6.9063,-3.1563 6.9063,-7.0274 V 8.57031 c 0,-0.80078 -0.6407,-1.45312 -1.4258,-1.45312 H 20.0703 c -0.7851,0 -1.4258,0.65234 -1.4258,1.45312 V 23.3398 c 0,3.8711 3.1016,7.0274 6.9024,7.0274 z m 4.5703,19.1445 c 4.6445,0 8.4062,-3.8281 8.4062,-8.5508 0,-4.7226 -3.7617,-8.5507 -8.4062,-8.5507 -4.6445,0 -8.4063,3.8281 -8.4063,8.5507 0,4.7227 3.7618,8.5508 8.4063,8.5508 z M 15.0156,41.3359 c 3.4688,0 6.2813,-2.8632 6.2813,-6.3906 0,-3.5273 -2.8125,-6.3867 -6.2813,-6.3867 -3.4648,0 -6.27732,2.8594 -6.27732,6.3867 0,3.5274 2.81252,6.3906 6.27732,6.3906 z m 30.2032,0 c 3.4648,0 6.2773,-2.8632 6.2773,-6.3906 0,-3.5273 -2.8125,-6.3867 -6.2773,-6.3867 -3.4688,0 -6.2813,2.8594 -6.2813,6.3867 0,3.5274 2.8125,6.3906 6.2813,6.3906" /></g></g></svg>