<svg width="24" height="24" viewBox="0 0 24 24" fill="none" xmlns="http://www.w3.org/2000/svg">
<path d="M11.9165 12.1891C15.0063 12.1891 17.5111 9.68435 17.5111 6.59456C17.5111 3.50477 15.0063 1 11.9165 1C8.82671 1 6.32194 3.50477 6.32194 6.59456C6.32194 9.68435 8.82671 12.1891 11.9165 12.1891Z" fill="#DDDFE4"/>
<path d="M12.0835 22.7102C12.683 22.7102 13.169 22.2242 13.169 21.6247C13.169 21.0252 12.683 20.5392 12.0835 20.5392C11.484 20.5392 10.998 21.0252 10.998 21.6247C10.998 22.2242 11.484 22.7102 12.0835 22.7102Z" fill="#DDDFE4"/>
<path d="M16.9499 22.3203C16.9895 22.0664 17.0101 21.8062 17.0101 21.5412C17.0101 20.3399 16.5872 19.2373 15.8823 18.3742L13.599 20.4771C13.8528 20.8168 14.004 21.2441 14.004 21.7082C14.004 22.0282 13.9322 22.3306 13.8044 22.599L16.9499 22.3203Z" fill="#DDDFE4"/>
<path d="M7.03725 22.2325C7.00606 22.0065 6.98995 21.7757 6.98995 21.5412C6.98995 20.3513 7.40476 19.2583 8.09766 18.3989L10.3898 20.7626C10.2451 21.0443 10.163 21.3663 10.163 21.7082C10.163 22.132 10.2891 22.5251 10.5042 22.8488L7.03725 22.2325Z" fill="#DDDFE4"/>
<path d="M12 16.5312C13.1854 16.5312 14.2746 16.9428 15.1325 17.631L13.0487 19.9753C12.7651 19.8029 12.4353 19.7042 12.0835 19.7042C11.664 19.7042 11.276 19.8445 10.9601 20.0826L8.71146 17.7614C9.59144 16.9952 10.7415 16.5312 12 16.5312Z" fill="#DDDFE4"/>
<path d="M12 13.307C11.9722 13.3074 11.9444 13.3076 11.9165 13.3076C10.6571 13.3076 9.49486 12.8914 8.55984 12.1891C4.62643 13.496 1.8129 16.9802 1.8129 21.0731C1.8129 21.3601 1.88438 21.5109 1.99902 21.5892C2.0783 21.9523 2.30562 22.5834 2.73141 22.8267C3.19901 23.0939 4.31792 22.9937 4.81893 22.9102L6.07144 22.3257C6.29411 22.103 6.75615 21.5908 6.82295 21.3236C6.90645 20.9896 6.90645 20.3216 6.65595 20.0711C6.52994 19.9451 6.26526 19.7245 6.02385 19.5296C6.3529 17.0635 8.90298 15.1446 12 15.1446C15.097 15.1446 17.6471 17.0635 17.9762 19.5296C17.7347 19.7245 17.4701 19.9451 17.3441 20.0711C17.0936 20.3216 17.0936 20.9896 17.1771 21.3236C17.2439 21.5908 17.7059 22.103 17.9286 22.3257L19.1811 22.9102C19.6821 22.9937 20.801 23.0939 21.2686 22.8267C21.6944 22.5834 21.9217 21.9523 22.001 21.5892C22.1156 21.5109 22.1871 21.3601 22.1871 21.0731C22.1871 16.9802 19.3736 13.496 15.4402 12.1891C14.5051 12.8914 13.3429 13.3076 12.0835 13.3076C12.0556 13.3076 12.0278 13.3074 12 13.307Z" fill="#DDDFE4"/>
</svg>
