<svg width="24" height="24" viewBox="0 0 24 24" fill="none" xmlns="http://www.w3.org/2000/svg">
<path d="M19.0201 5.47381C17.0801 3.53381 15.1801 3.48381 13.1901 5.47381L11.9801 6.68381C11.8801 6.78381 11.8401 6.94381 11.8801 7.08381C12.6401 9.73381 14.7601 11.8538 17.4101 12.6138C17.4501 12.6238 17.4901 12.6338 17.5301 12.6338C17.6401 12.6338 17.7401 12.5938 17.8201 12.5138L19.0201 11.3038C20.0101 10.3238 20.4901 9.37381 20.4901 8.41381C20.5001 7.42381 20.0201 6.46381 19.0201 5.47381Z" fill="#292D32"/>
<path d="M15.6101 13.5238C15.3201 13.3838 15.0401 13.2438 14.7701 13.0838C14.5501 12.9538 14.3401 12.8138 14.1301 12.6638C13.9601 12.5538 13.7601 12.3938 13.5701 12.2338C13.5501 12.2238 13.4801 12.1638 13.4001 12.0838C13.0701 11.8038 12.7001 11.4438 12.3701 11.0438C12.3401 11.0238 12.2901 10.9538 12.2201 10.8638C12.1201 10.7438 11.9501 10.5438 11.8001 10.3138C11.6801 10.1638 11.5401 9.94381 11.4101 9.72381C11.2501 9.45381 11.1101 9.18381 10.9701 8.90381C10.9489 8.85841 10.9284 8.81325 10.9085 8.76834C10.7609 8.43503 10.3263 8.33758 10.0685 8.59534L4.34007 14.3238C4.21007 14.4538 4.09007 14.7038 4.06007 14.8738L3.52007 18.7038C3.42007 19.3838 3.61007 20.0238 4.03007 20.4538C4.39007 20.8038 4.89007 20.9938 5.43007 20.9938C5.55007 20.9938 5.67007 20.9838 5.79007 20.9638L9.63007 20.4238C9.81007 20.3938 10.0601 20.2738 10.1801 20.1438L15.9014 14.4225C16.1609 14.1629 16.063 13.7175 15.7254 13.5734C15.6874 13.5572 15.649 13.5407 15.6101 13.5238Z" fill="#292D32"/>
</svg>
