<svg width="25" height="24" viewBox="0 0 25 24" fill="none" xmlns="http://www.w3.org/2000/svg">
<path d="M20.3571 24H4.55207C2.28855 24 0.45459 22.165 0.45459 19.9025V4.09748C0.45459 1.83396 2.28962 0 4.55207 0H20.3571C22.6206 0 24.4546 1.83503 24.4546 4.09748V19.9025C24.4557 22.166 22.6206 24 20.3571 24Z" fill="#16B0AC"/>
<path d="M18.0321 16.9856H10.9653C9.71357 16.9856 8.93408 15.688 9.56637 14.6556L13.0993 8.89172C13.7256 7.87008 15.2708 7.87008 15.8971 8.89172L19.4301 14.6556C20.0633 15.688 19.2838 16.9856 18.0321 16.9856Z" fill="white"/>
<path d="M13.1979 17.2243H6.37415C5.1649 17.2243 4.41307 15.9708 5.02362 14.9746L8.43501 9.40939C9.03964 8.42298 10.5324 8.42298 11.1361 9.40939L14.5475 14.9746C15.159 15.9718 14.4062 17.2243 13.1979 17.2243Z" fill="#D7EEEB"/>
</svg>
