<svg width="32" height="32" viewBox="0 0 32 32" fill="none" xmlns="http://www.w3.org/2000/svg">
<path d="M28.2248 11.1008L28.2247 11.1004C26.7289 4.51904 20.981 1.58333 16 1.58333H16H16H16H16H16H16H15.9999H15.9999H15.9999H15.9999H15.9999H15.9999H15.9999H15.9999H15.9999H15.9999H15.9999H15.9998H15.9998H15.9998H15.9998H15.9998H15.9998H15.9998H15.9998H15.9998H15.9998H15.9998H15.9997H15.9997H15.9997H15.9997H15.9997H15.9997H15.9997H15.9997H15.9996H15.9996H15.9996H15.9996H15.9996H15.9996H15.9996H15.9996H15.9996H15.9996H15.9996H15.9995H15.9995H15.9995H15.9995H15.9995H15.9995H15.9995H15.9995H15.9995H15.9995H15.9995H15.9994H15.9994H15.9994H15.9994H15.9994H15.9994H15.9994H15.9994H15.9994H15.9994H15.9993H15.9993H15.9993H15.9993H15.9993H15.9993H15.9993H15.9993H15.9993H15.9993H15.9992H15.9992H15.9992H15.9992H15.9992H15.9992H15.9992H15.9992H15.9991H15.9991H15.9991H15.9991H15.9991H15.9991H15.9991H15.9991H15.999H15.999H15.999H15.999H15.999H15.999H15.999H15.9989H15.9989H15.9989H15.9989H15.9989H15.9989H15.9989H15.9988H15.9988H15.9988H15.9988H15.9988H15.9988H15.9987H15.9987H15.9987H15.9987H15.9987H15.9987H15.9986H15.9986H15.9986H15.9986H15.9986H15.9986H15.9985H15.9985H15.9985H15.9985H15.9985H15.9984H15.9984H15.9984H15.9984H15.9984H15.9984H15.9983H15.9983H15.9983H15.9983H15.9983H15.9982H15.9982H15.9982H15.9982H15.9982H15.9981H15.9981H15.9981H15.9981H15.998H15.998H15.998H15.998H15.998H15.9979H15.9979H15.9979H15.9979H15.9978H15.9978H15.9978H15.9978H15.9977H15.9977H15.9977H15.9977H15.9977H15.9976H15.9976H15.9976H15.9976H15.9975H15.9975H15.9975H15.9974H15.9974H15.9974H15.9974H15.9973H15.9973H15.9973H15.9973H15.9972H15.9972H15.9972H15.9972H15.9971H15.9971H15.9971H15.997H15.997H15.997H15.997H15.9969H15.9969H15.9969H15.9968H15.9968H15.9968H15.9967H15.9967H15.9967H15.9967H15.9966H15.9966H15.9966H15.9965H15.9965H15.9965H15.9964H15.9964H15.9964H15.9963H15.9963H15.9963H15.9962H15.9962H15.9962H15.9961H15.9961H15.9961H15.996H15.996H15.996H15.9959H15.9959H15.9958H15.9958H15.9958H15.9957H15.9957H15.9957H15.9956H15.9956H15.9956H15.9955H15.9955H15.9954H15.9954H15.9954H15.9953H15.9953H15.9952H15.9952H15.9952H15.9951H15.9951H15.995H15.995H15.995H15.9949H15.9949H15.9948H15.9948H15.9948H15.9947H15.9947H15.9946H15.9946H15.9945H15.9945H15.9945H15.9944H15.9944H15.9943H15.9943H15.9942H15.9942H15.9942H15.9941H15.9941H15.994H15.994H15.9939H15.9939H15.9938H15.9938H15.9937H15.9937H15.9936H15.9936H15.9935H15.9935H15.9934H15.9934H15.9934H15.9933H15.9933H15.9932H15.9932H15.9931H15.9931H15.993H15.993H15.9929H15.9928H15.9928H15.9927H15.9927H15.9926H15.9926H15.9925H15.9925H15.9924H15.9924H15.9923H15.9923H15.9922H15.9922H15.9921H15.992H15.992H15.9919H15.9919H15.9918H15.9918H15.9917H15.9917H15.9916H15.9915H15.9915H15.9914H15.9914H15.9913H15.9912H15.9912H15.9911H15.9911H15.991H15.9909H15.9909H15.9908H15.9908H15.9907H15.9906H15.9906H15.9905H15.9905H15.9904H15.9903H15.9903H15.9902H15.9901H15.9901H15.99H15.9899H15.9899H15.9898H15.9898H15.9897H15.9896H15.9896H15.9895H15.9894H15.9894H15.9893H15.9892H15.9892H15.9891H15.989H15.9889H15.9889H15.9888H15.9887H15.9887H15.9886H15.9885H15.9885H15.9884H15.9883H15.9882H15.9882H15.9881H15.988H15.988H15.9879H15.9878H15.9877H15.9877H15.9876H15.9875H15.9874H15.9874H15.9873H15.9872H15.9871H15.9871H15.987H15.9869H15.9868H15.9867H15.9867C11.021 1.58333 5.25813 4.50407 3.76198 11.0871L3.7619 11.0875C2.10954 18.3748 6.58526 24.4606 10.4402 28.1673C11.9973 29.6655 13.9985 30.4167 16 30.4167C18.0003 30.4167 20.0028 29.6662 21.548 28.1659C25.402 24.4596 29.877 18.3876 28.2248 11.1008ZM16 17.1967C14.0942 17.1967 12.55 15.6525 12.55 13.7467C12.55 11.8409 14.0942 10.2967 16 10.2967C17.9058 10.2967 19.45 11.8409 19.45 13.7467C19.45 15.6525 17.9058 17.1967 16 17.1967Z" fill="#0DB1AC" stroke="white" stroke-width="1.5"/>
</svg>
