<svg width="19" height="17" viewBox="0 0 19 17" fill="none" xmlns="http://www.w3.org/2000/svg">
<path d="M0.638986 9.39977L0.588544 10.6164L0.285889 10.4664V9.18311L0.638986 9.39977Z" fill="#3C3C3C"/>
<path d="M0.285889 9.1334V8.55006L0.353145 8.4834L0.941641 8.70006L0.773499 8.80006L0.470844 8.70006L0.45403 9.01673L0.285889 9.1334Z" fill="#3C3C3C"/>
<path d="M0.285849 9.18314V10.4665L0.134521 10.3831V8.71647L0.285849 8.5498V9.13314L0.235407 9.16647L0.285849 9.18314Z" fill="#636363"/>
<path d="M1.81588 15.1831L1.78226 15.5331L0.235352 14.7998V14.3331L0.47075 14.4998L0.79022 14.5831V14.3165L0.47075 14.2165L0.235352 14.0498V13.7665L0.47075 13.5498L0.571636 13.6165L1.89996 14.3331L1.84951 14.8165L1.22739 14.4831L1.19376 14.8831L1.81588 15.1831Z" fill="#777777"/>
<path d="M4.52306 16.8668L1.78235 15.5335L1.81598 15.1835L2.03456 15.2835L2.95934 15.7502V15.4168L2.06819 14.9335L1.84961 14.8168L1.90005 14.3335L2.085 14.4335L2.13545 14.4668L3.80005 15.3502L4.1027 15.4835L4.4558 15.6335L4.47261 15.9168C4.47261 15.9168 4.47261 15.9113 4.47261 15.9002C4.23722 15.8779 4.1139 15.8613 4.1027 15.8502C4.09149 15.839 3.94016 15.7668 3.64872 15.6335V15.9668L4.1027 16.1168C4.36051 16.1946 4.48943 16.2224 4.48943 16.2002C4.48943 16.2002 4.48943 16.1946 4.48943 16.1835L4.52306 16.8668Z" fill="#595959"/>
<path d="M4.47253 16.1001C4.48373 16.1112 4.48935 16.1223 4.48935 16.1334L4.47253 16.1001Z" fill="#777777"/>
<path d="M6.22119 16.1166L6.45658 16.35L5.66632 15.85L5.63269 15.0833L6.30526 14.1333L5.83446 15.25L6.01942 15.8666L6.22119 16.1166Z" fill="#141414"/>
<path d="M6.30527 14.1331L7.83536 13.5498L7.61677 14.3498L7.48226 14.3331L7.38138 14.3165L7.04509 14.4498L6.72562 14.8998L6.60792 15.4665L6.65837 15.5831L6.72562 15.7165L6.96102 15.8498L6.4566 16.3498L6.2212 16.1165L6.01943 15.8665L5.83447 15.2498L6.30527 14.1331Z" fill="#282828"/>
<path d="M7.61684 14.3498L7.83543 13.5498L8.08764 13.8665L8.25578 14.3665L8.17171 14.8831L7.9195 15.4831L7.49914 15.9665L6.89383 16.3498H6.45667L6.96109 15.8498L7.331 15.7665L7.54959 15.4665L7.83543 15.0165V14.5665L7.61684 14.3498Z" fill="#1E1E1E"/>
<path d="M6.97782 15.5169L6.65835 15.5836L6.60791 15.4669L6.72561 14.9002L7.04508 14.4502L7.38136 14.3169L7.48225 14.3336V14.7669L7.19641 15.2169L6.97782 15.5169Z" fill="#141414"/>
<path d="M0.655726 12.4668L2.08493 14.4335L0.571655 13.6168L0.655726 12.4668Z" fill="#2D2D2D"/>
<path d="M4.10263 14.3169V15.4836L3.79998 15.3502L2.13538 14.4669L4.10263 14.3169Z" fill="#3C3C3C"/>
<path d="M2.21948 13.5001L2.13541 14.4668L2.08497 14.4335L0.655762 12.4668L1.74868 13.2668L2.06815 13.4168L2.21948 13.5001Z" fill="#3C3C3C"/>
<path d="M4.10263 14.3167L2.13538 14.4667L2.21945 13.5L2.90883 13.8333L4.10263 14.3167Z" fill="#2D2D2D"/>
<path d="M2.06817 14.9331L2.95932 15.4164V15.7498L2.03455 15.2831L2.06817 14.9331Z" fill="#2D2D2D"/>
<path d="M2.06819 14.9334L2.03456 15.2834L1.19385 14.8834L1.22748 14.4834L2.06819 14.9334Z" fill="#3C3C3C"/>
<path d="M4.10266 15.85V16.1166L3.64868 15.9666V15.6333C3.94012 15.7666 4.09145 15.8389 4.10266 15.85Z" fill="#D8D8D8"/>
<path d="M4.47257 15.9001C4.47257 15.9668 4.47257 16.0279 4.47257 16.0834V16.1001C4.48379 16.1112 4.48939 16.1223 4.48939 16.1334V16.1668V16.1834C4.48939 16.1945 4.48939 16.2001 4.48939 16.2001C4.48939 16.2223 4.36047 16.1945 4.10266 16.1168V15.8501C4.11388 15.8612 4.23717 15.8779 4.47257 15.9001Z" fill="#FC9010"/>
<path d="M0.47075 14.4998L0.235352 14.3331V14.0498L0.47075 14.2165V14.4998Z" fill="#FC9010"/>
<path d="M0.470825 14.5001V14.2168L0.790294 14.3168V14.5835L0.470825 14.5001Z" fill="#D8D8D8"/>
<path d="M18.277 8.8999L18.2938 8.9499L18.2097 9.46657L18.277 8.8999Z" fill="#282828"/>
<path d="M13.115 12.4832L13.3504 12.6998L11.8372 11.8498L11.7699 11.6665L12.7956 12.2332H12.9133L13.115 12.4832Z" fill="#141414"/>
<path d="M14.5275 10.7002L14.7629 9.9502L14.9814 10.2335L15.1496 10.7335L15.0823 11.2502L14.8301 11.8502L14.3929 12.3335L13.7876 12.7002H13.3505L13.8717 12.2002L14.2416 12.1335L14.4434 11.8169L14.7292 11.3669V10.9335L14.5275 10.7002Z" fill="#1E1E1E"/>
<path d="M13.6868 10.5669L14.7629 9.9502L14.5275 10.7002L14.3762 10.6835H14.2921L13.9558 10.8169L13.6195 11.2502L13.5186 11.8169L13.5691 11.9502L13.6195 12.0835L13.8717 12.2002L13.3505 12.7002L13.1151 12.4835L12.9133 12.2335L12.9638 11.6835L13.216 11.0669L13.3001 11.1002L13.6868 10.5669Z" fill="#282828"/>
<path d="M13.8717 11.8831L13.569 11.9498L13.5186 11.8164L13.6194 11.2498L13.9557 10.8164L14.292 10.6831H14.3761V11.1331L14.0902 11.5831L13.8717 11.8831Z" fill="#141414"/>
<path d="M16.2425 10.6999L16.4947 10.9166L14.9646 10.0666L14.8973 9.86657L16.1584 9.1499L15.8557 9.83324L16.0575 10.4499L16.2425 10.6999Z" fill="#141414"/>
<path d="M16.9991 10.4166L16.4947 10.9166L16.2424 10.7L16.0575 10.45L15.8557 9.8333L16.1584 9.14997L17.9239 8.1333L17.6548 8.91663L17.5035 8.89997L17.4194 8.8833L17.0831 9.0333L16.7637 9.46663L16.646 10.0333L16.6964 10.1666L16.7637 10.3L16.9991 10.4166Z" fill="#282828"/>
<path d="M18.2769 8.89997L18.2097 9.46663L17.9575 10.0666L17.5203 10.5333L16.9318 10.9166H16.4946L16.9991 10.4166L17.369 10.35L17.5875 10.0333L17.8734 9.5833V9.14997L17.6548 8.91663L17.9238 8.1333L18.2433 8.49997L18.2769 8.89997Z" fill="#1E1E1E"/>
<path d="M17.0159 10.1L16.6964 10.1666L16.646 10.0333L16.7637 9.46663L17.0832 9.0333L17.4194 8.8833L17.5035 8.89997V9.3333L17.2177 9.79997L17.0159 10.1Z" fill="#141414"/>
<path d="M12.207 10.4667L13.4008 9.3667L13.6362 10.4667L13.2159 11.0667L13.115 11L12.4592 10.6167L12.207 10.4667Z" fill="#9E9E9E"/>
<path d="M18.2433 7.8334L17.0831 8.50006L15.7212 7.90007L16.3938 7.46673V7.7334L16.4106 7.8334L17.2849 8.2834L17.3858 8.1834L16.5787 7.7334V7.41673L16.7805 7.25006L16.9823 7.35006L17.1504 7.2334V7.31673L17.184 7.41673L18.0584 7.86673L18.1592 7.7834L18.2433 7.8334Z" fill="#666666"/>
<path d="M17.0664 8.5L13.6363 10.4667L13.4009 9.36667L15.015 8.98333L17.0664 8.5Z" fill="#848484"/>
<path d="M13.9053 8.5835L15.015 8.9835L13.4009 9.36683L13.9053 8.5835Z" fill="#9E9E9E"/>
<path d="M16.5787 7.1499L16.7805 7.2499L16.5787 7.41657V7.1499Z" fill="#4F4F4F"/>
<path d="M13.9053 8.58324L15.7212 7.8999L17.0831 8.4999H17.0663L15.015 8.98324L13.9053 8.58324Z" fill="#7C7C7C"/>
<path d="M16.3938 6.6001V7.46676L15.7212 7.9001L13.9053 8.58343L14.8637 7.9501L15.6708 7.1001L16.0911 6.73343L16.3601 6.61676L16.3938 6.6001Z" fill="#4F4F4F"/>
<path d="M17.3354 7.31647V7.2998L17.7054 7.51647L17.3354 7.31647Z" fill="#9E9E9E"/>
<path d="M16.5787 6.6167L16.8814 6.7667L16.915 6.75003L16.8982 6.85003L16.5787 7.05003V6.6167Z" fill="#4F4F4F"/>
<path d="M16.6964 6.11676V6.3501L16.5787 6.41676V6.11676L16.6628 6.1001L16.6964 6.11676Z" fill="#282828"/>
<path d="M16.0912 6.73311L16.108 6.26644L16.3938 6.18311V6.59977L16.3602 6.61644L16.0912 6.73311Z" fill="#282828"/>
<path d="M16.5956 2.8667L16.6461 3.43337L15.6708 3.95003V4.10003L16.3938 4.43337V4.55003V4.65003L16.293 4.7167V4.8167L16.3602 4.8667V5.3167V5.43337L16.3938 5.45003V6.18337L16.108 6.2667L15.116 4.03337L15.3009 3.85003L15.4018 3.70003L16.5956 2.8667Z" fill="#0DB1AC"/>
<path d="M15.2168 3.23314L16.831 2.2998L16.8141 2.43314L16.6124 2.56647L16.5956 2.66647L16.5451 2.71647L16.5956 2.66647V2.86647L15.4018 3.6998V3.56647L15.3513 3.1498L15.2168 3.23314Z" fill="#0DB1AC"/>
<path d="M14.7796 6.5166L16.1079 6.2666L16.0911 6.73327L15.6708 7.09993L14.8637 7.94994L13.9053 8.58327L14.7796 7.19994V6.5166Z" fill="#0DB1AC"/>
<path d="M14.2247 6.1332L15.1159 4.0332L16.1079 6.26654L14.7796 6.51654L14.2247 6.1332Z" fill="#0DB1AC"/>
<path d="M16.3939 4.86689V5.30023L16.3602 5.31689V4.86689L16.293 4.81689L16.3939 4.86689Z" fill="#893800"/>
<path d="M16.3938 4.43311L16.4106 4.44977L16.5788 4.43311V4.54977L16.3938 4.64977V4.54977V4.43311Z" fill="#C5C5C5"/>
<path d="M16.5788 5.53353V5.8002L16.4274 5.88353V5.98353L16.5788 6.06686V6.11686V6.41686L16.4947 6.46686V6.58353L16.5788 6.61686V7.05019V7.1502V7.41686V7.73353L17.3858 8.18353L17.2849 8.28353L16.4106 7.83353L16.3938 7.73353V7.46686V6.60019V6.18353V5.4502L16.5788 5.53353Z" fill="#C5C5C5"/>
<path d="M16.5788 4.95003V5.20003L16.3938 5.30003V4.8667L16.5788 4.95003Z" fill="#C5C5C5"/>
<path d="M17.1504 6.61667L17.3353 6.5V6.65L17.3017 6.61667L17.1504 6.7V6.61667Z" fill="#C5C5C5"/>
<path d="M17.3353 3.5332V3.86654L17.1504 3.74987V3.6332L17.3353 3.5332Z" fill="#C5C5C5"/>
<path d="M17.1504 5.3832L17.3353 5.2832V5.5832L17.1504 5.46654V5.3832Z" fill="#C5C5C5"/>
<path d="M17.1504 5.9833L17.3353 5.8833V6.1333L17.2008 6.04997L17.1504 6.0833V5.9833Z" fill="#C5C5C5"/>
<path d="M17.3017 4.0499L17.3353 3.8999V4.51657L17.1504 4.38324V4.13324L17.3017 4.0499Z" fill="#C5C5C5"/>
<path d="M17.1504 4.7333L17.3353 4.6333V5.0833L17.1504 4.94997V4.7333Z" fill="#C5C5C5"/>
<path d="M17.1504 7.2333L17.3353 7.1333V7.29997V7.31663L17.7053 7.51663L18.1592 7.76663V7.7833L18.0584 7.86663L17.184 7.41663L17.1504 7.31663V7.2333Z" fill="#C5C5C5"/>
<path d="M11.4336 10.8334L11.4 11.1501L11.0469 11.3334L11.0132 11.2001L10.8283 10.9834L10.7106 10.8334L11.6185 10.3501L11.4336 10.8334Z" fill="#222222"/>
<path d="M13.9053 8.5833L13.4008 9.36663L12.207 10.4666L11.7362 10.1833L11.2318 9.8833L11.2991 9.76663L11.5681 9.39997L9.66809 10.5V9.51663L11.4504 9.1833L13.838 7.04997L14.2247 6.1333L14.7796 6.51663V7.19997L13.9053 8.5833Z" fill="#2D2D2D"/>
<path d="M8.47436 12.7499L8.62568 12.8833L7.96993 13.3166L7.83542 13.1166L7.8186 12.7833L8.03719 12.8333L8.13807 12.7999L8.18852 12.3333V11.5333L9.16374 10.9666L8.23896 9.68327L8.50798 9.73327L9.66816 9.5166V10.4999V10.8499L8.35666 11.6499L8.27259 12.0499V12.2999L8.47436 12.7499Z" fill="#222222"/>
<path d="M13.6531 1.11683L13.3505 1.0835L13.7708 0.833496L13.8213 1.16683L13.6531 1.11683Z" fill="#893800"/>
<path d="M16.8142 3.53343L18.9664 2.3501L19 2.43343L18.8319 2.7001L17.3354 3.53343L17.1505 3.63343L17.0664 3.68343L16.8142 3.53343Z" fill="#595959"/>
<path d="M16.5956 2.86644L18.0416 1.93311L18.1257 2.18311L18.2602 2.43311L16.646 3.43311L16.5956 2.86644Z" fill="#9E9E9E"/>
<path d="M16.5956 2.6666L16.6124 2.5666L17.9575 1.7666L18.0248 1.8166L16.5956 2.6666Z" fill="#D8D8D8"/>
<path d="M16.5956 2.66689L18.0248 1.81689L18.0416 1.93356L16.5956 2.86689V2.66689Z" fill="#B1B1B1"/>
<path d="M16.7637 3.51647L18.4619 2.56647L18.8991 2.2998L18.9663 2.3498L16.8141 3.53314L16.7637 3.51647Z" fill="#9E9E9E"/>
<path d="M16.646 3.43311L18.2602 2.43311L18.4619 2.56644L16.7637 3.51644L16.646 3.43311Z" fill="#8E8E8E"/>
<path d="M13.8212 1.1666L13.7708 0.833267L13.7203 0.516602L13.8212 0.9166L14.2248 1.24993L14.6451 1.3666L14.8133 1.4166H15.0991H15.3345L15.5531 1.33327L15.7548 1.2666L15.9398 0.949933L15.7885 1.33327L15.738 1.48326L15.654 1.7166L15.3009 2.6166L14.8637 1.9166L14.5442 1.54993L13.9725 1.2166L13.8212 1.1666Z" fill="#595959"/>
<path d="M13.2159 1.48349L12.6274 1.3335L13.3505 1.0835L13.6531 1.11683L13.8212 1.16683L13.9726 1.21683L14.5443 1.55016L14.8637 1.91683L15.3009 2.61683L14.8469 2.86683L14.7797 2.6835L14.3593 2.16683L14.0566 1.90016L13.8717 1.7335L13.2832 1.48349H13.2159Z" fill="#003948"/>
<path d="M15.0823 3.38324L15.0319 3.2999L15.2168 3.23324L15.3513 3.1499L15.4018 3.56657V3.6999L15.3009 3.8499L15.1159 4.03324L15.1496 3.93324L15.0823 3.38324Z" fill="#003948"/>
<path d="M8.79386 9.26644L8.50802 9.73311L8.239 9.68311L7.24696 9.13311V8.54977L7.07882 8.29977L6.57439 8.01644L6.20448 7.79977L6.1036 7.73311L5.95227 7.31644V6.93311L8.79386 9.26644Z" fill="#1B4044"/>
<path d="M8.79386 9.26654L5.95227 6.9332L6.59121 6.7832L7.46554 7.1332L8.27262 7.96654L8.69298 8.64987L8.79386 9.26654Z" fill="#24555A"/>
<path d="M6.59121 6.7835L5.95227 6.9335L7.12926 4.46683L9.68501 2.50016L11.77 1.71683L12.6275 1.3335L13.216 1.48349L10.3576 2.7835L7.66731 4.7335L6.59121 6.7835Z" fill="#0DB1AC"/>
<path d="M15.1495 3.93311L15.1159 4.03311L14.2247 6.13311L13.838 7.04977L11.4504 9.18311L9.66811 9.51644L8.50793 9.73311L8.79378 9.26644L11.3495 8.74977L13.7203 6.61644L15.1495 3.93311Z" fill="#24555A"/>
<path d="M11.3496 7.41644L8.69294 8.64977L8.27258 7.96644L10.3575 6.06644L13.569 3.76644L14.7797 2.68311L14.8469 2.86644L15.0319 3.26644V3.29977L15.0823 3.38311L14.1744 4.63311L11.3496 7.41644Z" fill="#4097A0"/>
<path d="M11.3495 8.74997L8.79376 9.26663L8.69287 8.64997L11.3495 7.41663L14.1743 4.6333L15.0823 3.3833L15.1495 3.9333L13.7203 6.61663L11.3495 8.74997Z" fill="#0DB1AC"/>
<path d="M10.3575 6.06657L8.27253 7.96657L7.46545 7.13324L9.01236 4.96657L11.6186 3.26657L14.0566 1.8999L14.3593 2.16657L14.7796 2.68324L13.569 3.76657L10.3575 6.06657Z" fill="#47A7B1"/>
<path d="M9.01243 4.96673L7.46552 7.1334L6.59119 6.7834L7.66729 4.7334L10.3576 2.7834L13.216 1.4834H13.2832L13.8717 1.7334L14.0567 1.90007L11.6186 3.26673L9.01243 4.96673Z" fill="#4097A0"/>
<path d="M14.6451 1.3667L14.7628 0.116699L15.3009 0.233365L15.0991 1.4167H14.8133L14.6451 1.3667Z" fill="#B1B1B1"/>
<path d="M15.5531 1.3334L15.7717 0.483398L15.9398 0.950067L15.7549 1.26674L15.5531 1.3334Z" fill="#777777"/>
<path d="M15.0991 1.41673L15.3009 0.233398L15.7717 0.483398L15.5531 1.3334L15.3345 1.41673H15.0991Z" fill="#9E9E9E"/>
<path d="M13.8212 0.916797L13.7203 0.516799L14.0902 0.216797L14.2248 1.25013L13.8212 0.916797Z" fill="#777777"/>
<path d="M14.2247 1.25003L14.0902 0.2167L14.7628 0.116699L14.6451 1.3667L14.2247 1.25003Z" fill="#9E9E9E"/>
<path d="M7.02836 8.79987V8.96654L4.64075 7.6332V7.2832L5.95225 8.01654L6.75933 8.49987L7.02836 8.79987Z" fill="#777777"/>
<path d="M7.24696 8.5498V9.13314L7.02838 8.96647V8.7998L6.75935 8.4998L5.95227 8.01647L6.20448 7.7998L7.07882 8.2998L7.24696 8.5498Z" fill="#9E9E9E"/>
<path d="M5.95225 8.0167L4.64075 7.28337L4.9434 7.1167L6.10358 7.73337L6.20446 7.80003L5.95225 8.0167Z" fill="#C5C5C5"/>
<path d="M17.3522 3.86644L16.4779 4.36644L16.646 3.43311L16.7637 3.51644L16.8142 3.53311L17.0664 3.68311L17.1505 3.74977L17.3354 3.86644H17.3522Z" fill="#777777"/>
<path d="M15.6708 3.94977L16.646 3.43311L16.4779 4.36644L15.6708 3.94977Z" fill="#9E9E9E"/>
<path d="M17.1505 4.3832L17.3354 4.51654H17.3523L16.6965 4.91654L16.293 4.71654L16.3939 4.64987L16.5788 4.54987L17.016 4.2832L17.1505 4.3832Z" fill="#9E9E9E"/>
<path d="M16.6964 4.9166L17.3522 4.5166V4.6166L17.3353 4.63327L17.1504 4.73327L16.6964 5.0166V4.9166Z" fill="#777777"/>
<path d="M16.293 4.8168V4.7168L16.6965 4.9168V5.0168L16.5788 4.95013L16.3939 4.8668L16.293 4.8168Z" fill="#4F4F4F"/>
<path d="M17.1504 4.9499L17.3354 5.08324L17.4194 5.11657L16.7637 5.53324L16.377 5.33324L16.3938 5.2999L16.5787 5.1999L17.0663 4.8999L17.1504 4.9499Z" fill="#9E9E9E"/>
<path d="M16.3602 5.31647L16.3939 5.2998L16.377 5.33314L16.3602 5.31647Z" fill="#9E9E9E"/>
<path d="M16.7637 5.53337L17.4194 5.1167V5.23337L17.3354 5.28337L17.1504 5.38337L16.7637 5.6167V5.53337Z" fill="#777777"/>
<path d="M16.3602 5.4335L16.377 5.3335L16.7638 5.5335V5.61683L16.5788 5.5335L16.3939 5.45016L16.3602 5.4335Z" fill="#4F4F4F"/>
<path d="M16.3602 5.31689L16.377 5.33356L16.3602 5.43356V5.31689Z" fill="#4F4F4F"/>
<path d="M17.1505 5.4668L17.3355 5.58346L17.4868 5.68346L16.831 6.10013L16.4275 5.88346L16.5788 5.80013L17.1505 5.4668Z" fill="#9E9E9E"/>
<path d="M16.8309 6.09977L17.4867 5.68311V5.79977L17.3354 5.88311L17.1504 5.98311L16.8309 6.18311V6.09977Z" fill="#777777"/>
<path d="M16.4275 5.9833V5.8833L16.831 6.09997V6.1833L16.6965 6.11663L16.6629 6.09997L16.5788 6.06663L16.4275 5.9833Z" fill="#4F4F4F"/>
<path d="M17.2008 6.0498L17.3353 6.13314L17.5539 6.26647L16.8814 6.68314L16.4946 6.46647L16.5787 6.41647L16.6964 6.3498L17.1504 6.08314L17.2008 6.0498Z" fill="#9E9E9E"/>
<path d="M16.8815 6.68327L17.554 6.2666V6.38327L17.3355 6.49994L17.1505 6.6166L16.9151 6.74994L16.8815 6.7666V6.68327Z" fill="#777777"/>
<path d="M16.4946 6.58346V6.4668L16.8814 6.68346V6.7668L16.5787 6.6168L16.4946 6.58346Z" fill="#4F4F4F"/>
<path d="M17.3017 6.6167L17.3354 6.65003L17.638 6.85003L16.9823 7.25003L16.5787 7.05003L16.8982 6.85003L17.1504 6.70003L17.3017 6.6167Z" fill="#9E9E9E"/>
<path d="M16.9823 7.2501L17.6381 6.8501V6.9501L17.3354 7.13343L17.1504 7.23343L16.9823 7.3501V7.2501Z" fill="#777777"/>
<path d="M16.5787 7.14981V7.0498L16.9823 7.2498V7.3498L16.7805 7.2498L16.5787 7.14981Z" fill="#4F4F4F"/>
<path d="M16.2929 2.06676L16.6965 1.8501L16.831 2.3001L15.2168 3.23343L15.0319 3.3001V3.26676L14.8469 2.86676L15.3009 2.61676L16.2929 2.06676Z" fill="#777777"/>
<path d="M15.738 1.48349L15.7884 1.3335L16.6964 1.85016L16.2929 2.06683L15.6539 1.71683L15.738 1.48349Z" fill="#0DB1AC"/>
<path d="M16.2929 2.0668L15.3009 2.6168L15.654 1.7168L16.2929 2.0668Z" fill="#0DB1AC"/>
<path d="M18.2434 7.8335V7.95016L18.0584 8.05016L18.0416 8.06683L17.9239 8.1335L16.1584 9.15016L14.8974 9.86683L14.7628 9.95016L13.6867 10.5668L13.3 11.1002L13.2159 11.0668L13.6363 10.4668L18.2434 7.8335Z" fill="#777777"/>
<path d="M9.83623 10.5499L9.66809 10.4999L11.5681 9.3999L11.2991 9.76657L9.83623 10.5499Z" fill="#777777"/>
<path d="M11.7363 10.1833L11.6186 10.3499L10.7106 10.8333L10.5089 10.6999L10.1221 10.5833L9.8363 10.7499V10.5499L11.2991 9.7666L11.2319 9.88327L11.7363 10.1833Z" fill="#434343"/>
<path d="M12.7956 12.2335L11.77 11.6668L11.3496 11.4502L11.4001 11.1502L11.4337 10.8335L12.8461 11.6502L12.7956 12.2335Z" fill="#0DB1AC"/>
<path d="M13.115 10.9998L12.846 11.6498L11.4336 10.8331L11.6185 10.3498L11.7362 10.1831L12.207 10.4664L12.4593 10.6164L13.115 10.9998Z" fill="#0DB1AC"/>
<path d="M18.0417 8.06647L18.0585 8.0498L18.2434 8.21647L18.4284 8.46647V8.98314L18.3779 8.9498V8.51647L18.0248 8.08314L17.924 8.13314L18.0417 8.06647Z" fill="#FC9010"/>
<path d="M10.5089 10.7002L10.7107 10.8335L8.89474 11.6002L8.6089 11.5335L8.35669 11.6502L9.66819 10.8502L9.83634 10.7502L10.1222 10.5835L10.5089 10.7002Z" fill="#595959"/>
<path d="M8.89465 11.6002L10.7106 10.8335L10.8283 10.9835L11.0132 11.2002L9.43271 12.3002L9.23094 11.9168L8.89465 11.6002Z" fill="#777777"/>
<path d="M9.53361 12.6668L11.131 11.7168L11.0805 12.0835L9.23096 13.1168L9.46635 12.9335L9.53361 12.6668Z" fill="#3C3C3C"/>
<path d="M11.0133 11.2002L11.0469 11.3335L11.0805 11.4669L11.131 11.7169L9.53362 12.6669L9.43274 12.3002L11.0133 11.2002Z" fill="#595959"/>
<path d="M8.18848 11.5331L8.23892 9.68311L9.1637 10.9664L8.18848 11.5331Z" fill="#2D2D2D"/>
<path d="M9.83623 10.75L9.66809 10.85V10.5L9.83623 10.55V10.75Z" fill="#434343"/>
<path d="M13.115 11L13.2159 11.0667L12.9637 11.6833L12.9132 12.2333H12.7955L12.846 11.65L13.115 11Z" fill="#B74A00"/>
<path d="M18.3779 8.51683V8.95016L18.277 8.90016L18.2434 8.50016L17.924 8.1335L18.0248 8.0835L18.3779 8.51683Z" fill="#B74A00"/>
<path d="M7.24695 9.1333L8.23898 9.6833L8.18854 11.5333V12.3333L8.1381 12.8L8.03721 12.8333L7.81863 12.7833L7.75137 11.25L7.6673 10.0666L7.49916 9.39997L7.24695 9.1333Z" fill="#141414"/>
<path d="M4.45576 11.15L2.40444 9.9167L0.655762 8.8667L0.773461 8.80003L0.941602 8.70003L3.59824 7.1167L4.45576 11.15Z" fill="#0DB1AC"/>
<path d="M7.49915 9.40003L4.01862 9.10003L3.59827 7.1167L4.06906 7.35003L4.64074 7.63337L7.02835 8.9667L7.24694 9.13337L7.49915 9.40003Z" fill="#0DB1AC"/>
<path d="M4.45572 11.1501L4.01855 9.1001L7.49909 9.4001L7.54953 9.56676L4.45572 11.1501Z" fill="#0DB1AC"/>
<path d="M4.18673 11.4166L4.45576 11.1499V13.3166L4.10266 13.2166L4.18673 11.4166Z" fill="#0DB1AC"/>
<path d="M4.45573 13.3169V15.6335L4.10263 15.4835V14.3169L2.90882 13.8335L2.21944 13.5002L2.06812 13.4169L2.169 12.4502L2.62298 12.7002L4.10263 13.2169L4.45573 13.3169Z" fill="#0DB1AC"/>
<path d="M0.57171 13.6167L0.470825 13.5501L0.554896 11.4834L0.756666 11.5667L1.07613 11.8501L2.16906 12.4501L2.06817 13.4167L1.7487 13.2667L0.655781 12.4667L0.57171 13.6167Z" fill="#0DB1AC"/>
<path d="M0.756579 11.5666L0.55481 11.4832L0.588438 10.6166L0.63888 9.3999L0.84065 9.51657L0.756579 11.5666Z" fill="#0DB1AC"/>
<path d="M4.99377 12.9502L5.24599 12.8169V13.0669L4.99377 12.9502Z" fill="#0DB1AC"/>
<path d="M7.04519 11.9502L7.83546 13.1169L5.95227 13.9669L6.01953 13.1169V12.4502L7.04519 11.9502Z" fill="#0DB1AC"/>
<path d="M16.4779 4.3667L17.3522 3.8667L17.3354 3.90003L17.3018 4.05003L17.1505 4.13337L16.5788 4.43337L16.4779 4.48337V4.3667Z" fill="#4F4F4F"/>
<path d="M15.6708 3.9502L16.4779 4.36686V4.48353L16.4106 4.4502L16.377 4.43353L15.6708 4.1002V3.9502Z" fill="#3B3B3B"/>
<path d="M7.83546 13.1167L7.96997 13.3167L8.07085 13.4667L7.83546 13.55L6.30537 14.1334L5.95227 13.9667L7.83546 13.1167Z" fill="#595959"/>
<path d="M4.45581 15.6333L5.66643 16.1833L4.52307 16.8666L4.48944 16.1833C4.48944 16.1833 4.48944 16.1778 4.48944 16.1666C4.48944 16.1555 4.48944 16.1444 4.48944 16.1333L4.47262 16.1C4.47262 16.1 4.47262 16.0944 4.47262 16.0833L4.45581 15.6333Z" fill="#3C3C3C"/>
<path d="M5.6328 15.0834L5.66643 15.85V16.1834L4.45581 15.6334L5.38059 14.8667L5.6328 15.0834Z" fill="#2D2D2D"/>
<path d="M5.38049 14.8668L5.95217 13.9668L6.30527 14.1335L5.63271 15.0835L5.38049 14.8668Z" fill="#434343"/>
<path d="M4.18672 11.4166L4.10265 13.2166L0.840698 9.5166L2.11857 10.2666L4.15309 11.4499L4.18672 11.4166Z" fill="#002B36"/>
<path d="M4.10261 13.2166L2.62296 12.6999L2.16898 12.4499L1.07606 11.8499L0.756592 11.5666L0.840663 9.5166L4.10261 13.2166Z" fill="#003948"/>
<path d="M2.11853 10.2665L2.40437 9.9165L4.4557 11.1498L4.18667 11.4165L4.15304 11.4498L2.11853 10.2665Z" fill="#0F0F0F"/>
<path d="M2.11854 10.2667L0.840661 9.5167L0.638891 9.40003L0.285796 9.18337L0.235352 9.1667L0.285796 9.13337L0.453937 9.0167L0.655707 8.8667L2.40438 9.9167L2.11854 10.2667Z" fill="#1E1E1E"/>
<path d="M4.87615 13.0002L4.64075 13.1169L4.69119 11.2002L5.02747 11.3835L5.24606 11.6502V12.8169L4.99384 12.9502L4.87615 13.0002Z" fill="#003948"/>
<path d="M5.24608 11.3164L4.97705 11.0664L6.86024 10.1831L7.04519 11.9498L6.01953 12.4498V11.5331L5.83457 11.3664L5.61599 11.4498L5.44785 11.5331L5.24608 11.3164Z" fill="#002B36"/>
<path d="M5.4478 11.5336V13.2836L5.24603 13.3169L4.87612 13.0002L4.99382 12.9502L5.24603 13.0669V12.8169V11.6502L5.02745 11.3836L4.69116 11.2002L4.977 11.0669L5.24603 11.3169L5.4478 11.5336Z" fill="#4F4F4F"/>
<path d="M6.01943 12.45V13.1167L5.76722 13.2167L5.44775 13.2834V11.5334L5.6159 11.45L5.83448 11.3667L6.01943 11.5334V12.45Z" fill="#1E1E1E"/>
<path d="M6.80979 9.9502L6.86024 10.1835L4.97705 11.0669L4.69121 11.2002L4.64077 13.1169L4.87616 13.0002L5.24608 13.3169L5.44785 13.2835L5.76731 13.2169L6.01953 13.1169L5.95227 13.9669L5.38059 14.8669L4.45581 15.6335V13.3169H4.48944H4.45581V11.1502L6.80979 9.9502Z" fill="#0DB1AC"/>
<path d="M7.83536 13.1169L7.04509 11.9502L6.86013 10.1836L6.80969 9.95023L7.54952 9.56689L7.66721 10.0669L7.75129 11.2502L7.81854 12.7836L7.83536 13.1169Z" fill="#0DB1AC"/>
<path d="M7.23013 15.1499L7.60004 15.3999L7.5496 15.4666L7.33101 15.7666L6.9611 15.8499L6.7257 15.7166L6.65845 15.5832L6.97792 15.5166L7.1965 15.2166L7.23013 15.1499Z" fill="#3B3B3B"/>
<path d="M7.61683 14.3502L7.83541 14.5668V15.0168L7.60001 15.4002L7.2301 15.1502L7.48231 14.7668V14.3335L7.61683 14.3502Z" fill="#4F4F4F"/>
<path d="M14.5275 10.6998L14.7292 10.9331V11.3664L14.4938 11.7664L14.1407 11.4998L14.3761 11.1331V10.6831L14.5275 10.6998Z" fill="#4F4F4F"/>
<path d="M14.1407 11.5L14.4937 11.7667L14.4433 11.8167L14.2415 12.1333L13.8716 12.2L13.6194 12.0833L13.569 11.95L13.8716 11.8833L14.0902 11.5833L14.1407 11.5Z" fill="#3B3B3B"/>
<path d="M17.6885 9.88324L17.3186 9.6499L17.5036 9.33324V8.8999L17.6549 8.91657L17.8735 9.1499V9.58324L17.6885 9.88324Z" fill="#4F4F4F"/>
<path d="M17.6884 9.88324L17.5876 10.0332L17.369 10.3499L16.9991 10.4166L16.7637 10.2999L16.6964 10.1666L17.0159 10.0999L17.2176 9.7999L17.3185 9.6499L17.6884 9.88324Z" fill="#3B3B3B"/>
<path d="M8.35665 11.6499L9.23099 13.1166L8.77701 13.0166L8.62568 12.8832L8.47435 12.7499L8.27258 12.2999V12.0499L8.35665 11.6499Z" fill="#777777"/>
<path d="M9.53368 12.6665L9.46642 12.9332L9.23103 13.1165L8.35669 11.6499L8.6089 11.5332L8.89474 11.5999L9.23103 11.9165L9.4328 12.2999L9.53368 12.6665Z" fill="#9E9E9E"/>
</svg>
