<svg width="237" height="237" viewBox="0 0 237 237" fill="none" xmlns="http://www.w3.org/2000/svg">
<g clip-path="url(#clip0_526_131)">
<path fill-rule="evenodd" clip-rule="evenodd" d="M134.151 228.077C97.0789 229.877 55.7468 237.124 26.0798 229.764C-4.33328 222.219 -0.57414 207.397 1.10205 195.069C2.68441 183.431 4.75315 169.651 35.1201 163.276C64.0505 157.201 100.246 164.97 134.151 167.134C157.732 168.639 182.028 168.817 200.334 173.821C220.213 179.255 233.939 186.722 236.345 195.069C238.988 204.241 234.056 214.116 213.83 220.649C193.561 227.196 162.579 226.697 134.151 228.077Z" fill="#F0F1F3"/>
<path d="M101.191 152.672C88.8256 168.966 76.679 185.422 64.7508 202.042C64.304 202.665 63.9213 203.671 64.5813 204.057C64.7981 204.167 65.0432 204.208 65.284 204.175C67.2724 204.027 68.8047 202.439 70.1307 200.956C76.4218 193.925 83.3493 187.458 89.7839 180.481C96.3872 173.323 102.613 165.825 108.437 158.019L101.191 152.672Z" fill="#1A1E22"/>
<path d="M137.308 155.868C149.673 172.162 161.82 188.617 173.748 205.234C174.195 205.856 174.578 206.863 173.917 207.255C173.7 207.365 173.455 207.406 173.215 207.374C171.227 207.226 169.694 205.637 168.367 204.154C162.076 197.122 155.15 190.655 148.714 183.679C142.11 176.521 135.884 169.023 130.062 161.216L137.308 155.868Z" fill="#1A1E22"/>
<path d="M125.041 159.988C129.08 168.484 133.004 177.031 136.814 185.629C136.956 185.95 137.033 186.44 136.696 186.555C136.588 186.582 136.474 186.577 136.369 186.54C135.488 186.288 134.947 185.429 134.488 184.637C132.316 180.882 129.804 177.322 127.562 173.579C125.26 169.737 123.161 165.778 121.272 161.718L125.041 159.988Z" fill="#1A1E22"/>
<path d="M111.544 159.988C107.507 168.484 103.585 177.031 99.777 185.629C99.6336 185.95 99.5566 186.44 99.8955 186.555C100.003 186.582 100.117 186.577 100.223 186.54C101.104 186.288 101.645 185.429 102.103 184.637C104.275 180.882 106.787 177.322 109.031 173.579C111.331 169.737 113.43 165.778 115.319 161.718L111.544 159.988Z" fill="#1A1E22"/>
<path d="M167.06 140.984C165.841 139.288 164.353 137.803 162.655 136.585C157.878 133.137 151.768 131.632 145.985 130.993C133.737 129.64 120.744 129.913 109.909 123.139C99.963 116.923 92.4774 106.951 89.144 95.7184C83.7653 77.5879 82.1857 58.8435 78.3427 40.4346C77.563 36.7018 75.7902 32.8672 72.4177 31.0849C69.9209 29.7625 66.8648 29.7814 64.1784 30.6583C50.59 35.0902 53.9519 51.5226 54.5041 62.7505C55.5291 83.6065 59.1125 104.676 64.2329 124.912C66.9584 135.687 71.0289 145.802 80.1404 152.781C89.5457 159.984 102.217 161.745 113.709 162.894C120.039 163.525 126.405 163.713 132.761 163.455C141.686 163.1 151 163.204 159.618 160.531C163.715 159.26 167.455 156.813 169.005 152.635C170.555 148.457 169.448 144.345 167.06 140.984Z" fill="white"/>
<path d="M127.269 163.981C122.724 163.981 118.169 163.755 113.67 163.306C107.94 162.734 101.84 162.003 96.0418 160.509C89.4722 158.823 84.1918 156.402 79.8903 153.11C75.5887 149.818 72.1724 145.684 69.4267 140.463C67.212 136.25 65.4333 131.338 63.8323 125.014C58.3304 103.27 55.0539 82.3279 54.0928 62.7706C54.0205 61.3095 53.902 59.7761 53.7764 58.1491C52.954 47.4841 51.929 34.2121 64.0516 30.2602C67.0804 29.2719 70.2017 29.4378 72.6144 30.714C76.6434 32.847 78.1839 37.6652 78.7491 40.3469C80.1842 47.2199 81.3206 54.2505 82.4226 61.0488C84.2688 72.458 86.1767 84.2547 89.5421 95.5963C92.8601 106.768 100.361 116.677 110.13 122.784C118.832 128.223 129.09 129.088 139.006 129.925C141.317 130.119 143.708 130.32 146.031 130.578C153.194 131.368 158.711 133.222 162.9 136.247C164.634 137.491 166.155 139.009 167.403 140.741C170.14 144.594 170.85 148.868 169.4 152.775C167.616 157.588 163.166 159.864 159.749 160.924C152.342 163.221 144.408 163.478 136.735 163.728C135.437 163.769 134.095 163.813 132.785 163.867C130.95 163.942 129.111 163.981 127.269 163.981ZM67.9633 30.4545C66.7215 30.459 65.4882 30.6589 64.3087 31.047C59.2014 32.7131 56.1085 36.261 54.8512 41.9123C53.7409 46.8999 54.1995 52.8415 54.6036 58.084C54.7292 59.7133 54.8489 61.2515 54.9211 62.7244C55.8798 82.2283 59.148 103.115 64.6381 124.805C66.2225 131.068 67.9775 135.918 70.1626 140.072C72.8514 145.184 76.1978 149.232 80.3963 152.447C84.5947 155.662 89.7898 158.043 96.2492 159.701C101.994 161.177 108.058 161.907 113.754 162.475C120.065 163.104 126.412 163.291 132.748 163.036C134.06 162.984 135.405 162.94 136.705 162.897C144.322 162.65 152.2 162.395 159.499 160.13C162.738 159.125 166.951 156.983 168.623 152.486C169.974 148.843 169.3 144.843 166.727 141.22C165.533 139.562 164.078 138.109 162.418 136.917C158.349 133.98 152.96 132.177 145.947 131.401C143.635 131.145 141.25 130.944 138.944 130.749C128.927 129.904 118.569 129.031 109.698 123.485C99.7509 117.279 92.1183 107.2 88.7458 95.8357C85.3662 84.4431 83.4524 72.6192 81.6026 61.1851C80.5041 54.3951 79.3677 47.3739 77.9374 40.5199C77.4065 37.9804 75.9596 33.4265 72.2269 31.4511C70.9814 30.7887 69.5085 30.4545 67.9633 30.4545Z" fill="#1A1E22"/>
<path d="M160.33 113.57H93.4811C93.1084 113.571 92.7391 113.499 92.3945 113.357C92.0498 113.216 91.7364 113.007 91.4722 112.744C91.2081 112.482 90.9984 112.169 90.8551 111.825C90.7118 111.481 90.6377 111.112 90.6371 110.739V107.81C90.6378 107.427 90.716 107.049 90.8668 106.697C91.0177 106.346 91.2381 106.028 91.5149 105.764C91.7917 105.5 92.119 105.294 92.4773 105.16C92.8355 105.025 93.2173 104.965 93.5996 104.982L160.45 107.911C161.182 107.939 161.874 108.25 162.382 108.777C162.889 109.304 163.174 110.007 163.174 110.739C163.174 111.112 163.1 111.481 162.956 111.825C162.813 112.169 162.603 112.482 162.339 112.744C162.075 113.007 161.762 113.216 161.417 113.357C161.072 113.499 160.703 113.571 160.33 113.57Z" fill="#1A1E22"/>
<path d="M160.609 112.756C160.551 112.907 158.696 111.603 158.392 112.151C157.251 114.209 151.552 129.895 149.978 134.784C149.926 134.943 151.911 135.248 152.105 134.796C153.805 130.873 159.552 115.466 160.609 112.756Z" fill="#1A1E22"/>
<path d="M153.566 98.6951C154.131 98.5276 154.696 98.3641 155.262 98.2045C155.135 98.163 155.011 98.1156 154.885 98.073C154.923 98.0528 154.961 98.0362 155.004 98.0125C154.793 97.6511 154.212 97.6416 153.686 97.657C146.043 94.8782 139.055 90.5269 131.722 86.9802C131.509 86.8594 131.273 86.7844 131.029 86.7598C130.786 86.7712 130.548 86.8321 130.33 86.9387C123.138 89.8491 116.228 91.1455 108.551 93.0296C107.745 93.4728 107.069 94.1163 106.949 94.8284C106.413 97.9699 103.569 103.257 102.473 106.255C101.005 110.254 98.8835 113.882 96.8832 117.631L118.509 124.69C121.536 125.678 124.79 126.586 127.552 128.174C128.102 128.489 128.687 128.739 129.294 128.92C129.424 128.219 130.308 124.491 130.308 124.491L133.339 126.473C133.339 126.473 134.031 123.838 133.931 123.412C133.931 123.412 136.538 123.674 137.832 123.599C138.069 118.528 135.545 106.733 134.121 105.029C135.47 105.384 135.281 105.435 136.3 105.569C137.195 105.688 138.759 105.736 139.666 105.843C143.111 106.251 146.442 105.916 149.874 105.71C151.111 105.636 152.314 105.402 153.526 105.173L153.976 105.089C154.067 105.073 153.621 102.744 153.575 102.531C153.511 102.238 153.269 101.758 153.456 101.496C153.643 101.235 154.256 101.11 154.532 101.022C154.593 101.003 154.665 100.974 154.674 100.911C154.674 100.87 154.66 100.831 154.633 100.8C154.188 100.147 153.83 99.4396 153.566 98.6951Z" fill="white"/>
<path d="M132.977 104.754C132.867 104.762 132.758 104.727 132.674 104.655C132.591 104.583 132.539 104.481 132.53 104.371C132.522 104.261 132.557 104.152 132.629 104.069C132.701 103.985 132.803 103.933 132.913 103.925C138.127 103.104 143.198 101.501 148.095 99.95C149.991 99.3516 151.928 98.7366 153.884 98.1642C148.67 96.305 143.723 93.6837 138.923 91.1431C136.514 89.868 134.023 88.5491 131.536 87.3511C131.375 87.2579 131.198 87.1967 131.014 87.171C130.828 87.1868 130.647 87.237 130.48 87.3191C126.781 88.8169 117.65 91.2497 113.794 92.1337C113.741 92.1473 113.685 92.15 113.63 92.1417C113.576 92.1335 113.523 92.1144 113.476 92.0856C113.429 92.0568 113.388 92.0189 113.356 91.9741C113.324 91.9293 113.301 91.8785 113.288 91.8247C113.276 91.7709 113.274 91.7152 113.284 91.6608C113.293 91.6064 113.314 91.5544 113.343 91.5079C113.373 91.4614 113.412 91.4213 113.457 91.39C113.503 91.3587 113.554 91.3368 113.608 91.3256C117.443 90.4463 126.509 88.0313 130.17 86.55C130.441 86.4214 130.735 86.3504 131.035 86.3415C131.338 86.3653 131.632 86.4547 131.898 86.6034C134.398 87.8132 136.896 89.1345 139.311 90.4143C144.462 93.1398 149.789 95.9601 155.394 97.8087C155.478 97.837 155.551 97.8914 155.602 97.964C155.652 98.0366 155.679 98.1236 155.677 98.2122C155.675 98.3009 155.645 98.3866 155.59 98.4568C155.536 98.5271 155.461 98.5782 155.376 98.6027C153.006 99.2686 150.636 100.019 148.345 100.745C143.418 102.305 138.324 103.919 133.042 104.747C133.021 104.751 132.999 104.753 132.977 104.754Z" fill="#1A1E22"/>
<path d="M129.294 129.333C129.254 129.333 129.214 129.327 129.176 129.316C128.959 129.25 128.162 128.926 126.658 128.308C124.15 127.281 120.36 125.729 118.381 125.083L96.7552 118.026C96.6973 118.007 96.6441 117.976 96.5996 117.934C96.5551 117.893 96.5203 117.842 96.4977 117.785C96.4751 117.729 96.4652 117.668 96.4687 117.607C96.4723 117.546 96.4892 117.487 96.5182 117.434C98.8136 113.131 106.235 97.8964 106.677 93.9705C106.69 93.8605 106.745 93.7599 106.832 93.6909C106.918 93.6219 107.029 93.5902 107.139 93.6026C107.249 93.615 107.349 93.6706 107.418 93.7571C107.487 93.8437 107.519 93.9541 107.507 94.0641C107.04 98.1737 99.7557 113.044 97.4852 117.383L118.643 124.289C120.658 124.944 124.458 126.505 126.976 127.537C127.79 127.87 128.53 128.173 128.984 128.352C129.228 127.103 129.478 126.06 129.743 125.176C131.213 120.289 132.106 115.246 132.405 110.152C132.425 109.796 132.45 109.426 132.476 109.04C132.578 107.5 132.695 105.742 132.586 104.545C132.581 104.491 132.587 104.436 132.603 104.384C132.62 104.332 132.646 104.283 132.681 104.241C132.752 104.156 132.854 104.103 132.964 104.093C133.074 104.083 133.183 104.118 133.268 104.188C133.352 104.259 133.406 104.361 133.416 104.471C133.534 105.732 133.416 107.519 133.307 109.092C133.282 109.475 133.257 109.847 133.237 110.197C132.934 115.356 132.029 120.463 130.541 125.412C130.201 126.588 129.924 127.781 129.711 128.986C129.693 129.081 129.642 129.167 129.568 129.228C129.494 129.29 129.4 129.324 129.304 129.325L129.294 129.333Z" fill="#1A1E22"/>
<path d="M136.63 105.305C135.564 105.305 134.542 105.266 133.594 105.196C133.484 105.188 133.382 105.136 133.31 105.053C133.238 104.969 133.202 104.86 133.21 104.75C133.219 104.64 133.27 104.538 133.354 104.466C133.437 104.394 133.546 104.358 133.656 104.366C139.445 104.795 147.942 104.011 154.429 100.516C154.526 100.468 154.637 100.458 154.741 100.491C154.844 100.523 154.93 100.594 154.982 100.69C155.033 100.785 155.045 100.896 155.015 101C154.986 101.104 154.916 101.193 154.823 101.246C149.249 104.254 142.237 105.305 136.63 105.305Z" fill="#1A1E22"/>
<path d="M143.385 106.572C139.967 106.572 136.643 106.249 134.001 105.422C133.897 105.388 133.811 105.315 133.761 105.218C133.712 105.121 133.702 105.008 133.734 104.904C133.767 104.8 133.839 104.713 133.935 104.662C134.032 104.611 134.144 104.6 134.249 104.631C137.767 105.732 144.784 106.368 153.929 104.849C154.035 104.835 154.143 104.863 154.229 104.927C154.315 104.991 154.373 105.086 154.391 105.192C154.409 105.298 154.385 105.406 154.324 105.495C154.263 105.583 154.17 105.645 154.065 105.666C150.535 106.252 146.963 106.555 143.385 106.572Z" fill="#1A1E22"/>
<path d="M133.452 126.662C133.384 126.662 133.316 126.645 133.256 126.612C133.159 126.56 133.087 126.471 133.055 126.366C133.023 126.26 133.035 126.147 133.087 126.05C133.663 124.983 134.121 120.234 134.342 113.015C134.413 110.718 134.281 107.453 133.246 104.936C133.204 104.835 133.205 104.72 133.247 104.619C133.29 104.517 133.371 104.437 133.472 104.395C133.574 104.353 133.688 104.354 133.79 104.396C133.892 104.438 133.972 104.519 134.014 104.621C135.103 107.273 135.245 110.665 135.172 113.035C135.011 118.303 134.643 124.906 133.817 126.436C133.783 126.503 133.731 126.56 133.666 126.6C133.602 126.64 133.528 126.661 133.452 126.662Z" fill="#1A1E22"/>
<path d="M137.836 124.011C137.728 124.011 137.626 123.97 137.548 123.895C137.471 123.821 137.426 123.719 137.422 123.612C137.385 122.682 137.332 121.739 137.264 120.808C137.037 117.689 136.571 114.611 136.198 112.276C135.733 109.432 135.031 107.388 133.771 105.235C133.729 105.142 133.722 105.036 133.753 104.938C133.784 104.841 133.85 104.758 133.938 104.706C134.027 104.654 134.131 104.637 134.231 104.657C134.332 104.678 134.421 104.734 134.482 104.817C135.778 107.035 136.536 109.226 137.011 112.144C137.394 114.495 137.862 117.595 138.092 120.748C138.16 121.688 138.21 122.644 138.25 123.58C138.253 123.635 138.244 123.689 138.225 123.74C138.206 123.791 138.178 123.838 138.141 123.878C138.104 123.918 138.059 123.95 138.01 123.973C137.96 123.996 137.907 124.008 137.852 124.01L137.836 124.011Z" fill="#1A1E22"/>
<path d="M132.982 104.778C132.938 104.778 132.895 104.77 132.854 104.756C123.717 101.794 114.745 98.2116 106.902 94.3947C106.851 94.3723 106.805 94.3397 106.767 94.299C106.729 94.2584 106.699 94.2104 106.68 94.158C106.661 94.1056 106.652 94.0499 106.655 93.9942C106.658 93.9384 106.672 93.8838 106.696 93.8336C106.721 93.7835 106.755 93.7387 106.797 93.7021C106.839 93.6655 106.888 93.6378 106.941 93.6205C106.995 93.6033 107.051 93.597 107.106 93.602C107.162 93.6069 107.216 93.6231 107.265 93.6494C115.068 97.4497 124.003 101.018 133.098 103.968C133.192 103.999 133.272 104.062 133.324 104.146C133.375 104.23 133.395 104.33 133.38 104.428C133.364 104.525 133.315 104.614 133.24 104.678C133.164 104.743 133.069 104.778 132.97 104.778H132.982Z" fill="#1A1E22"/>
<path d="M114.271 103.479C108.605 104.635 106.629 113.066 112.266 116.307C114.516 117.584 117.178 117.928 119.679 117.264C123.88 116.129 125.205 111.731 124.003 107.821C122.95 104.384 119.145 103.505 115.937 103.355C115.378 103.327 114.819 103.369 114.271 103.479Z" fill="#0DB1AC"/>
<path d="M112.654 114.738C112.635 114.739 112.616 114.739 112.596 114.738C112.542 114.731 112.489 114.713 112.441 114.685C112.393 114.657 112.352 114.62 112.319 114.576C112.285 114.531 112.261 114.481 112.248 114.427C112.235 114.374 112.232 114.318 112.241 114.264C112.658 111.281 113.484 108.37 114.696 105.613C114.74 105.513 114.823 105.434 114.925 105.394C115.027 105.354 115.141 105.356 115.242 105.4C115.342 105.445 115.421 105.527 115.461 105.629C115.501 105.732 115.499 105.846 115.455 105.946C114.274 108.632 113.469 111.467 113.062 114.373C113.05 114.472 113.002 114.564 112.927 114.632C112.852 114.699 112.755 114.736 112.654 114.738Z" fill="white"/>
<path d="M115.906 114.922C115.841 114.923 115.777 114.907 115.718 114.878C115.66 114.849 115.61 114.806 115.571 114.754C115.533 114.702 115.507 114.641 115.496 114.577C115.485 114.512 115.49 114.447 115.509 114.384L117.962 106.531C117.996 106.428 118.069 106.342 118.166 106.292C118.263 106.242 118.376 106.232 118.48 106.265C118.584 106.298 118.671 106.37 118.722 106.466C118.773 106.562 118.785 106.675 118.754 106.779L116.302 114.636C116.275 114.719 116.222 114.792 116.151 114.844C116.079 114.895 115.994 114.923 115.906 114.922Z" fill="white"/>
<path d="M119.26 115.756C119.226 115.755 119.193 115.751 119.16 115.744C119.053 115.717 118.961 115.65 118.904 115.555C118.847 115.461 118.829 115.348 118.855 115.241C119.466 112.753 120.195 110.264 121.024 107.842C121.041 107.789 121.068 107.741 121.104 107.699C121.14 107.657 121.184 107.622 121.233 107.598C121.282 107.573 121.336 107.558 121.391 107.554C121.446 107.551 121.501 107.558 121.554 107.576C121.606 107.594 121.654 107.622 121.695 107.659C121.736 107.695 121.77 107.74 121.794 107.79C121.817 107.84 121.831 107.894 121.833 107.949C121.836 108.004 121.828 108.059 121.809 108.111C120.987 110.511 120.268 112.977 119.661 115.439C119.639 115.529 119.588 115.609 119.515 115.667C119.442 115.724 119.352 115.755 119.26 115.756Z" fill="white"/>
<path d="M178.206 48.0399C177.26 48.04 176.314 47.9905 175.373 47.8918C175.292 47.8841 175.214 47.8527 175.151 47.8015C175.088 47.7502 175.041 47.6814 175.016 47.6036C174.992 47.5259 174.991 47.4426 175.013 47.3642C175.036 47.2858 175.081 47.2159 175.143 47.163C176.833 45.7237 178.387 44.1314 179.785 42.4064C177.84 42.2285 175.886 42.1849 173.935 42.2761C173.825 42.2812 173.718 42.2425 173.636 42.1684C173.555 42.0943 173.506 41.9909 173.501 41.8809C173.496 41.7709 173.535 41.6633 173.609 41.5819C173.683 41.5004 173.786 41.4517 173.896 41.4466C176.14 41.3426 178.388 41.4127 180.621 41.6563C180.694 41.6642 180.764 41.6915 180.823 41.7353C180.882 41.7791 180.929 41.8378 180.958 41.9055C180.987 41.9732 180.997 42.0473 180.988 42.1204C180.979 42.1934 180.95 42.2627 180.906 42.3211C179.561 44.0646 178.058 45.6807 176.417 47.1488C178.677 47.3023 180.947 47.1633 183.171 46.7352C183.279 46.7157 183.389 46.7392 183.479 46.8007C183.57 46.8622 183.632 46.9568 183.653 47.0638C183.674 47.1709 183.651 47.282 183.591 47.3728C183.531 47.4637 183.437 47.5271 183.33 47.5493C181.642 47.8764 179.926 48.0407 178.206 48.0399Z" fill="#1A1E22"/>
<path d="M165.746 57.1917C164.848 57.1912 163.951 57.1254 163.063 56.995C162.997 56.9849 162.934 56.959 162.88 56.9197C162.825 56.8803 162.781 56.8285 162.751 56.7686C162.722 56.7087 162.707 56.6425 162.708 56.5756C162.71 56.5088 162.727 56.4433 162.76 56.3847C163.488 55.0551 164.276 53.7516 165.108 52.4991C163.817 52.6386 162.51 52.4688 161.297 52.0037C161.195 51.9644 161.112 51.8859 161.067 51.7855C161.022 51.685 161.019 51.5709 161.058 51.4681C161.097 51.3653 161.176 51.2824 161.276 51.2375C161.377 51.1926 161.491 51.1895 161.594 51.2287C162.968 51.7571 164.469 51.8595 165.902 51.5226C165.984 51.5034 166.069 51.5093 166.148 51.5397C166.226 51.5701 166.293 51.6234 166.34 51.6927C166.387 51.762 166.413 51.844 166.412 51.9279C166.412 52.0118 166.386 52.0936 166.338 52.1625C165.433 53.466 164.575 54.843 163.782 56.252C165.551 56.4503 167.339 56.3792 169.086 56.041C169.195 56.0201 169.306 56.043 169.398 56.1047C169.489 56.1664 169.552 56.2618 169.573 56.3699C169.594 56.478 169.571 56.59 169.509 56.6812C169.447 56.7724 169.352 56.8354 169.244 56.8563C168.091 57.0787 166.92 57.191 165.746 57.1917Z" fill="#1A1E22"/>
<path d="M152.552 68.3425C152.077 68.3423 151.602 68.3158 151.13 68.2631C151.05 68.2542 150.975 68.2224 150.913 68.1716C150.851 68.1208 150.805 68.0531 150.781 67.9768C150.757 67.9005 150.755 67.8188 150.776 67.7415C150.797 67.6643 150.84 67.5948 150.9 67.5414C151.753 66.7779 152.474 65.8786 153.033 64.8799C152.194 64.704 151.33 64.6791 150.482 64.8065C150.373 64.823 150.262 64.7955 150.173 64.7302C150.085 64.6649 150.026 64.567 150.009 64.4581C149.993 64.3492 150.02 64.2382 150.085 64.1495C150.151 64.0608 150.249 64.0018 150.357 63.9853C151.495 63.8148 152.655 63.8903 153.761 64.2069C153.819 64.2237 153.873 64.253 153.919 64.2929C153.964 64.3328 154.001 64.3822 154.025 64.4377C154.05 64.4932 154.062 64.5534 154.061 64.614C154.059 64.6747 154.045 64.7343 154.018 64.7887C153.524 65.7831 152.885 66.6985 152.122 67.5047C153.46 67.5529 154.796 67.3778 156.076 66.9869C156.13 66.9667 156.186 66.9578 156.243 66.9606C156.3 66.9634 156.356 66.9779 156.407 67.0032C156.458 67.0284 156.503 67.0639 156.54 67.1074C156.577 67.1509 156.604 67.2015 156.62 67.2561C156.637 67.3106 156.641 67.3679 156.635 67.4245C156.628 67.481 156.609 67.5355 156.581 67.5846C156.552 67.6337 156.513 67.6764 156.467 67.7099C156.421 67.7435 156.369 67.7672 156.313 67.7796C155.094 68.1516 153.827 68.3413 152.552 68.3425Z" fill="#1A1E22"/>
</g>
<defs>
<clipPath id="clip0_526_131">
<rect width="237" height="237" fill="white"/>
</clipPath>
</defs>
</svg>
