<?xml version="1.0" encoding="UTF-8" standalone="no"?>
<svg
   xmlns:dc="http://purl.org/dc/elements/1.1/"
   xmlns:cc="http://creativecommons.org/ns#"
   xmlns:rdf="http://www.w3.org/1999/02/22-rdf-syntax-ns#"
   xmlns:svg="http://www.w3.org/2000/svg"
   xmlns="http://www.w3.org/2000/svg"
   viewBox="0 0 5.3333335 8"
   height="8"
   width="5.3333335"
   xml:space="preserve"
   id="svg2"
   version="1.1"><metadata
     id="metadata8"><rdf:RDF><cc:Work
         rdf:about=""><dc:format>image/svg+xml</dc:format><dc:type
           rdf:resource="http://purl.org/dc/dcmitype/StillImage" /></cc:Work></rdf:RDF></metadata><defs
     id="defs6" /><g
     transform="matrix(1.3333333,0,0,-1.3333333,0,8)"
     id="g10"><g
       transform="scale(0.1)"
       id="g12"><path
         id="path14"
         style="fill:#231f20;fill-opacity:1;fill-rule:nonzero;stroke:none"
         d="m 22.1367,54.6133 c -6.3633,0 -11.539,-5.1758 -11.539,-11.5391 0,-6.2422 4.8828,-11.2969 11.2461,-11.5156 0.1953,0.0273 0.3906,0.0273 0.5351,0 0.0508,0 0.0703,0 0.1211,0 0.0234,0 0.0234,0 0.0508,0 6.2148,0.2187 11.1015,5.2734 11.125,11.5156 0,6.3633 -5.1758,11.5391 -11.5391,11.5391" /><path
         id="path16"
         style="fill:#231f20;fill-opacity:1;fill-rule:nonzero;stroke:none"
         d="m 34.4766,25.0977 c -6.7774,4.5195 -17.8321,4.5195 -24.65629,0 -3.08593,-2.0664 -4.78515,-4.8555 -4.78515,-7.8438 0,-2.9883 1.69922,-5.7578 4.76172,-7.79687 3.39842,-2.28515 7.86722,-3.42578 12.33982,-3.42578 4.4688,0 8.9414,1.14063 12.3399,3.42578 3.0586,2.06247 4.7617,4.83207 4.7617,7.84377 -0.0274,2.9883 -1.7031,5.7578 -4.7617,7.7969" /></g></g></svg>