<svg width="237" height="237" viewBox="0 0 237 237" fill="none" xmlns="http://www.w3.org/2000/svg">
<path fill-rule="evenodd" clip-rule="evenodd" d="M123.434 226.351C90.4289 228.051 53.6311 234.895 27.2188 227.944C0.142106 220.818 3.48883 206.819 4.98114 195.176C6.38991 184.185 8.23169 171.171 35.2673 165.149C61.0239 159.412 93.2487 166.749 123.434 168.793C144.428 170.215 166.058 170.383 182.356 175.109C200.055 180.241 212.275 187.293 214.416 195.176C216.77 203.838 212.379 213.165 194.372 219.335C176.327 225.518 148.743 225.047 123.434 226.351Z" fill="#F0F1F3"/>
<path d="M74.3679 52.169C74.3069 53.7837 74.5906 56.3131 74.9207 57.7369C78.5425 58.055 81.9005 59.7162 81.9005 59.7162C82.4759 59.7758 81.9005 60.6441 81.8873 61.2354C81.8369 64.8148 79.7966 68.2961 76.7064 70.0831C73.6162 71.8701 69.59 71.8913 66.4826 70.1401C64.3482 68.9377 62.5201 66.7901 61.555 64.5523C61.0764 63.444 60.7861 62.1965 61.0247 60.9928C61.1188 60.5195 60.9345 60.2928 61.3296 59.98C61.9925 59.4576 63.753 58.7192 64.5524 58.4369C65.1662 58.2208 65.9934 57.9556 66.3606 57.3657C66.7279 56.7758 66.7371 51.5035 65.6355 49.5441C64.3827 47.3196 62.3557 45.2104 62.4936 42.4755C62.6261 39.7618 64.0022 37.9973 65.3558 35.8085C66.651 33.7139 68.1861 31.9441 70.5697 31.0771C73.0965 30.1584 76.1151 30.5468 78.1832 32.261C80.6716 34.3304 81.6155 37.6963 81.6301 40.8303C81.6486 43.8171 81.003 47.8127 78.5041 49.7708C77.3215 50.6988 75.9243 51.0607 74.466 51.1932C74.4315 51.522 74.3798 51.8442 74.3679 52.169Z" fill="white"/>
<path d="M71.5414 71.7773C69.7145 71.7842 67.9165 71.3218 66.3195 70.4344C64.1772 69.2267 62.2815 67.079 61.2501 64.6888C60.6615 63.3233 60.4759 62.06 60.7012 60.9331C60.7205 60.8237 60.7294 60.7128 60.7277 60.6017C60.7125 60.4337 60.7412 60.2646 60.8109 60.111C60.8806 59.9574 60.989 59.8245 61.1254 59.7254C61.8493 59.1527 63.7079 58.3904 64.4397 58.1346L64.5351 58.1001C65.0946 57.9052 65.7906 57.66 66.0769 57.2C66.3633 56.6697 66.3699 51.5406 65.3438 49.7177C65.0389 49.1755 64.6929 48.6479 64.3257 48.0911C63.2068 46.3915 62.0508 44.6337 62.1608 42.4688C62.2841 40.0348 63.3738 38.322 64.5272 36.5032C64.7061 36.2208 64.8891 35.9345 65.0707 35.6401C66.1525 33.8902 67.742 31.7572 70.453 30.7709C73.1641 29.7845 76.2941 30.2671 78.3926 32.0117C79.7183 33.1094 81.9309 35.7144 81.9641 40.8329C81.976 42.8214 81.6843 47.7066 78.7108 50.0372C77.6728 50.8499 76.4134 51.3178 74.7629 51.5021C74.7311 51.7354 74.7032 51.9568 74.6953 52.1795C74.6369 53.7014 74.8968 56.0413 75.1884 57.4333C78.5438 57.7819 81.5663 59.1925 81.9959 59.3993C82.0737 59.4112 82.1482 59.439 82.2148 59.481C82.2814 59.523 82.3386 59.5782 82.383 59.6432C82.5686 59.9229 82.4599 60.2822 82.3445 60.6627C82.2759 60.8503 82.2313 61.0458 82.212 61.2447C82.1603 64.9433 80.0617 68.5267 76.8668 70.3734C75.2449 71.2988 73.4087 71.7829 71.5414 71.7773ZM73.355 30.9273C72.4447 30.9286 71.5416 31.0887 70.6864 31.4006C68.1675 32.3166 66.6669 34.337 65.6408 35.9954C65.4578 36.2924 65.2735 36.5814 65.0933 36.8651C63.9399 38.6786 62.943 40.2443 62.829 42.5033C62.7309 44.4521 63.8259 46.1171 64.8864 47.7278C65.2431 48.2701 65.6116 48.8308 65.9284 49.3929C67.042 51.3722 67.1322 56.7704 66.6456 57.5526C66.236 58.2154 65.3836 58.5097 64.7605 58.7272L64.6664 58.7603C63.8829 59.0374 62.1608 59.7572 61.5391 60.2504C61.3959 60.3644 61.3946 60.4028 61.3932 60.6136C61.3945 60.7661 61.3812 60.9184 61.3535 61.0683C61.1559 62.06 61.327 63.1894 61.8612 64.4316C62.8382 66.6933 64.6266 68.7229 66.6483 69.867C68.1654 70.7025 69.8711 71.1361 71.603 71.1263C73.335 71.1166 75.0357 70.6639 76.5433 69.8113C79.542 68.0786 81.5093 64.7167 81.5584 61.2473C81.5764 60.9864 81.6295 60.7291 81.7162 60.4824C81.7635 60.3427 81.7999 60.1995 81.8249 60.0542C81.8014 60.0486 81.7787 60.0401 81.7572 60.029C81.7241 60.0131 78.4085 58.3918 74.8941 58.0829C74.8244 58.0766 74.7584 58.0485 74.7056 58.0026C74.6527 57.9566 74.6157 57.8952 74.5998 57.827C74.2803 56.4403 73.9741 53.8831 74.039 52.1676C74.0496 51.8945 74.0854 51.6254 74.1199 51.3656L74.1464 51.1694C74.156 51.0946 74.1908 51.0254 74.2451 50.9732C74.2993 50.9209 74.3697 50.8886 74.4447 50.8817C76.0939 50.7319 77.3215 50.3024 78.3091 49.5281C81.052 47.3792 81.3198 42.7432 81.3078 40.8501C81.276 35.9994 79.2066 33.5588 77.975 32.5354C76.7156 31.4775 75.0612 30.9273 73.355 30.9273Z" fill="#1A1E22"/>
<path d="M76.3869 45.0023C76.5685 45.624 76.8853 46.2962 77.1425 46.3983C78.7426 47.032 79.0608 44.3421 79.0224 43.6143L76.371 43.9086C76.1695 43.9258 76.2238 44.4428 76.3869 45.0023Z" fill="#1A1E22"/>
<path d="M77.5999 46.8251C77.401 46.8224 77.2044 46.7819 77.0206 46.7058C76.5155 46.5056 76.1642 45.4225 76.0687 45.0951C75.7824 44.1154 75.9547 43.8555 76.0117 43.7694C76.047 43.7153 76.0939 43.6696 76.1489 43.6357C76.2039 43.6018 76.2657 43.5804 76.3299 43.5732L78.9813 43.2789C79.0262 43.2739 79.0717 43.2782 79.1148 43.2915C79.158 43.3048 79.1981 43.3267 79.2324 43.356C79.2668 43.3853 79.2949 43.4214 79.3148 43.4619C79.3348 43.5024 79.3463 43.5466 79.3485 43.5917C79.3711 44.0239 79.2584 45.9157 78.3224 46.5878C78.1126 46.7411 77.8597 46.8241 77.5999 46.8251ZM76.5712 44.2148C76.587 44.4509 76.6315 44.6842 76.7037 44.9095C76.896 45.5644 77.1611 46.0257 77.2725 46.0947C77.6225 46.2272 77.8213 46.1358 77.9353 46.0509C78.4232 45.6996 78.634 44.6351 78.679 43.9802L76.5712 44.2148Z" fill="#1A1E22"/>
<path d="M58.8651 50.1075C57.522 50.622 56.1292 50.9961 54.709 51.2238C54.192 51.3126 53.5159 51.3086 53.3118 50.826C53.1938 50.5503 53.3038 50.2189 53.5027 49.9935C53.715 49.7799 53.9643 49.6065 54.2384 49.4818C57.0396 47.9718 59.9005 45.8361 61.2739 42.8758C62.19 40.8979 62.9337 38.8245 64.4437 37.1952C65.1543 36.4289 69.4164 33.0683 70.3391 33.9923C70.6679 34.3237 70.6321 34.8885 70.4001 35.2928C70.1681 35.6972 69.7863 35.9888 69.4389 36.3017C66.6987 38.7582 66.3898 42.1348 66.6072 45.5683C66.8366 49.1543 67.2794 54.7157 62.9443 56.1156C62.7939 56.1742 62.6315 56.1956 62.471 56.1779C62.0296 56.0997 62.0031 55.576 62.0641 55.2287C62.2775 54.0064 63.0106 53.0055 63.6164 51.9476C64.241 50.8624 64.9224 49.8109 65.658 48.7977C63.3752 51.9489 59.6831 55.58 55.5084 55.6609C55.2433 55.6609 54.9318 55.6264 54.8098 55.3957C54.6573 55.1014 54.9318 54.7727 55.1863 54.5605C58.6464 51.6692 63.9068 49.739 65.1954 44.9373C64.9037 46.027 63.6443 46.9855 62.8409 47.6947C61.6668 48.7251 60.3212 49.5417 58.8651 50.1075Z" fill="#1A1E22"/>
<path d="M62.5758 56.5186C62.5206 56.5189 62.4656 56.5141 62.4114 56.504C61.8811 56.4099 61.6093 55.8862 61.7353 55.1717C61.9142 54.1429 62.4339 53.272 62.9417 52.4315C59.7958 55.3918 57.0635 55.9631 55.5178 55.9936C55.014 56.0042 54.6773 55.8531 54.5182 55.5455C54.3207 55.1637 54.4877 54.7117 54.9769 54.3034C55.9645 53.4788 57.1126 52.7191 58.2235 51.9847C60.22 50.6656 62.2642 49.3161 63.6098 47.4681L63.3858 47.6603L63.0623 47.94C61.8608 48.9972 60.4827 49.835 58.9911 50.4151C57.6255 50.9391 56.2091 51.3198 54.7648 51.5512C53.8607 51.7076 53.2362 51.4969 53.0069 50.956C52.934 50.7556 52.9185 50.5389 52.962 50.3303C53.0056 50.1216 53.1065 49.9292 53.2535 49.7748C53.4862 49.5353 53.7607 49.3403 54.0635 49.1994L54.082 49.1888C57.5288 47.3328 59.8448 45.1666 60.9756 42.738C61.1414 42.38 61.3044 42.0128 61.4622 41.6562C62.1834 40.0282 62.9297 38.3419 64.2037 36.9712C64.734 36.3932 68.2073 33.5336 69.8538 33.5031C69.9855 33.4934 70.1178 33.5112 70.2422 33.5555C70.3666 33.5998 70.4804 33.6696 70.5763 33.7603C71.0509 34.2363 70.974 34.9747 70.6903 35.4599C70.4618 35.8152 70.1744 36.129 69.8406 36.3879L69.6616 36.5456C66.9148 39.0101 66.7451 42.4781 66.9399 45.5445L66.9532 45.7513C67.1905 49.4274 67.5471 54.9834 63.0477 56.4284C62.8962 56.4835 62.7369 56.5139 62.5758 56.5186ZM65.6553 48.4663C65.7248 48.466 65.7926 48.4878 65.8489 48.5286C65.9202 48.5804 65.968 48.6583 65.9819 48.7453C65.9958 48.8322 65.9747 48.9212 65.9231 48.9926C65.1949 49.9966 64.52 51.0383 63.9015 52.1133C63.7808 52.3241 63.6549 52.5322 63.5289 52.7417C63.0252 53.5769 62.5479 54.3657 62.3875 55.2857C62.3875 55.2857 62.2987 55.816 62.5267 55.8518C62.6335 55.8576 62.7403 55.8399 62.8396 55.8001C66.8471 54.5128 66.5104 49.267 66.2864 45.7963L66.2731 45.5895C66.0676 42.3641 66.2559 38.7078 69.2148 36.0538L69.4004 35.8907C69.6768 35.677 69.9164 35.4195 70.1097 35.1284C70.2674 34.854 70.3178 34.4444 70.1017 34.227C70.0316 34.1775 69.9458 34.1554 69.8605 34.1647C68.601 34.1872 65.3836 36.6663 64.6902 37.4206C63.4971 38.7131 62.7998 40.2722 62.068 41.928C61.9089 42.2859 61.7445 42.6558 61.5775 43.019C60.3844 45.5816 57.9756 47.8552 54.4002 49.7801L54.383 49.7894C54.1509 49.8949 53.9391 50.0402 53.7572 50.2189C53.6946 50.281 53.6493 50.3586 53.6261 50.4438C53.6028 50.5289 53.6023 50.6187 53.6247 50.7041C53.7652 51.0329 54.4532 50.9401 54.66 50.9043C56.0578 50.6806 57.4288 50.3132 58.7511 49.8079C60.17 49.2518 61.4803 48.4508 62.6222 47.4415C62.7256 47.3501 62.8356 47.2546 62.9523 47.1565C63.7066 46.5082 64.6452 45.6982 64.8745 44.8511C64.8851 44.8084 64.9042 44.7683 64.9305 44.733C64.9568 44.6978 64.9899 44.6681 65.0278 44.6458C65.0657 44.6234 65.1076 44.6089 65.1512 44.6029C65.1948 44.5969 65.2391 44.5997 65.2816 44.6111C65.3241 44.6224 65.3639 44.6421 65.3987 44.669C65.4336 44.6959 65.4627 44.7295 65.4844 44.7677C65.5061 44.806 65.5199 44.8482 65.5252 44.8919C65.5304 44.9356 65.5269 44.9798 65.5148 45.0221C64.555 48.5949 61.5205 50.6007 58.5854 52.5389C57.4387 53.2972 56.3569 54.0117 55.4038 54.8124C55.1771 55.002 55.0763 55.1796 55.1081 55.2433C55.132 55.287 55.25 55.3374 55.5058 55.3321C57.4042 55.295 61.2063 54.371 65.3902 48.6042C65.4206 48.5621 65.4604 48.5277 65.5064 48.5038C65.5525 48.4799 65.6035 48.467 65.6553 48.4663Z" fill="#1A1E22"/>
<path d="M80.8068 34.6353C80.6095 33.869 80.3465 33.1212 80.0206 32.4002C76.9291 25.6391 67.1256 25.3581 63.2665 31.5212C61.905 33.6967 61.4184 36.478 62.0733 38.9213C62.1542 39.2249 62.3557 39.7352 62.3557 39.7352C63.3128 38.9902 64.3946 38.3605 64.62 38.2054C66.4906 36.9168 68.7124 36.2792 70.9065 35.7953C74.317 35.0476 77.8761 35.387 81.0839 36.7657C81.1197 36.1055 80.9752 35.2756 80.8068 34.6353Z" fill="#0DB1AC"/>
<path d="M62.3517 40.0667C62.2854 40.0665 62.2206 40.0465 62.1658 40.0092C62.1109 39.9718 62.0686 39.9189 62.0442 39.8572C62.0349 39.8347 61.8347 39.3269 61.7498 39.0061C61.087 36.5098 61.5457 33.6463 62.9854 31.3462C64.8971 28.2971 68.4208 26.5485 72.1751 26.7951C75.8208 27.0337 78.866 29.078 80.3229 32.2623C80.6554 33.0009 80.9246 33.7663 81.1276 34.5504C81.2297 34.9375 81.4617 35.9331 81.4113 36.7829C81.4082 36.836 81.3923 36.8875 81.365 36.9332C81.3377 36.9789 81.2999 37.0173 81.2547 37.0452C81.2094 37.0732 81.1581 37.0899 81.1051 37.0938C81.052 37.0978 80.9988 37.0889 80.95 37.0679C77.8069 35.7118 74.3167 35.3793 70.9741 36.1174C68.9762 36.5589 66.6801 37.178 64.8043 38.4772C64.7486 38.5156 64.6399 38.5832 64.4954 38.6747C63.8268 39.0834 63.1795 39.5259 62.5559 40.0004C62.4971 40.0445 62.4252 40.0678 62.3517 40.0667ZM71.4818 27.4354C68.2193 27.4354 65.2245 29.0263 63.5541 31.6975C62.2099 33.8452 61.7777 36.5138 62.3968 38.8364C62.4246 38.9412 62.4684 39.075 62.5134 39.2036C63.1471 38.741 63.7821 38.3433 64.1507 38.1139C64.2833 38.0304 64.3827 37.9681 64.4344 37.9323C66.4044 36.5748 68.7774 35.9265 70.8375 35.4718C74.148 34.7384 77.6025 35.0155 80.7538 36.2672C80.7135 35.7431 80.6247 35.2239 80.4886 34.7162C80.2948 33.9689 80.038 33.2393 79.721 32.5354C78.3675 29.5751 75.5318 27.6754 72.1327 27.454C71.9127 27.4421 71.6926 27.4354 71.4818 27.4354Z" fill="#1A1E22"/>
<path d="M81.4245 37.6049C84.2598 36.1638 86.7374 34.1075 88.6761 31.5862C89.3575 30.698 89.9939 29.6706 89.9422 28.5517C89.8931 27.4726 89.1733 26.4902 88.2267 25.9692C87.2802 25.4482 86.1454 25.3448 85.0795 25.5172C84.0136 25.6895 83.0061 26.119 82.0423 26.6069C77.5933 28.8606 73.9463 32.4002 70.3762 35.8868C73.8681 34.7347 78.2893 35.6694 81.4245 37.6049Z" fill="#1A1E22"/>
<path d="M81.4245 37.9363C81.3626 37.9362 81.302 37.9187 81.2495 37.8859C77.9472 35.8443 73.6175 35.1656 70.4769 36.197C70.4057 36.2203 70.3286 36.2189 70.2583 36.1928C70.1881 36.1668 70.1287 36.1176 70.0899 36.0535C70.0511 35.9893 70.0353 35.9139 70.0449 35.8396C70.0545 35.7652 70.089 35.6963 70.1428 35.6442C73.6904 32.1867 77.3586 28.6113 81.8925 26.3112C82.7211 25.891 83.8254 25.3833 85.0265 25.191C86.262 24.9908 87.4565 25.1645 88.3871 25.6789C89.4808 26.2821 90.2219 27.4023 90.2736 28.5371C90.3319 29.8005 89.5908 30.9379 88.9386 31.7877C86.9674 34.3466 84.4502 36.4335 81.5704 37.8965C81.5254 37.9207 81.4755 37.9342 81.4245 37.9363ZM73.6785 35.0608C76.4104 35.0853 79.0873 35.8317 81.4378 37.2244C84.1607 35.8097 86.5411 33.8166 88.4123 31.3847C88.9956 30.6237 89.6598 29.6162 89.612 28.5663C89.5696 27.6595 88.9638 26.754 88.0676 26.2582C87.2642 25.8154 86.2222 25.6683 85.1325 25.8446C84.0216 26.0249 82.9769 26.5074 82.1921 26.9052C78.1209 28.9693 74.7324 32.1138 71.4924 35.257C72.2122 35.1251 72.9427 35.0594 73.6745 35.0608H73.6785Z" fill="#1A1E22"/>
<path d="M129.913 37.0521C129.857 37.0522 129.802 37.0381 129.753 37.0112C129.704 36.9843 129.662 36.9455 129.632 36.8983C127.335 33.2473 124.254 30.2632 120.722 28.268C120.683 28.2474 120.648 28.2191 120.62 28.1847C120.592 28.1504 120.571 28.1108 120.558 28.0682C120.546 28.0256 120.542 27.9809 120.547 27.9367C120.552 27.8926 120.566 27.8499 120.587 27.8113C120.609 27.7726 120.639 27.7387 120.674 27.7116C120.709 27.6846 120.75 27.6648 120.793 27.6537C120.835 27.6425 120.88 27.64 120.924 27.6465C120.968 27.653 121.01 27.6682 121.048 27.6913C124.675 29.7395 127.837 32.8005 130.196 36.5443C130.228 36.5943 130.245 36.652 130.247 36.7113C130.249 36.7706 130.235 36.8293 130.207 36.8813C130.178 36.9332 130.136 36.9765 130.085 37.0066C130.034 37.0366 129.975 37.0523 129.916 37.0521H129.913Z" fill="#1A1E22"/>
<path d="M123.751 39.8307C123.716 39.8306 123.682 39.8252 123.648 39.8148L114.908 36.946C114.866 36.9328 114.827 36.9115 114.793 36.8832C114.76 36.8549 114.732 36.8202 114.712 36.7812C114.692 36.7422 114.68 36.6995 114.677 36.6558C114.673 36.6121 114.679 36.5681 114.692 36.5264C114.706 36.4847 114.728 36.4462 114.756 36.413C114.785 36.3798 114.82 36.3527 114.859 36.3331C114.899 36.3136 114.942 36.302 114.985 36.2991C115.029 36.2962 115.073 36.3021 115.114 36.3163L123.854 39.1851C123.928 39.21 123.991 39.2604 124.031 39.3274C124.072 39.3944 124.088 39.4736 124.075 39.551C124.063 39.6284 124.024 39.699 123.965 39.7502C123.905 39.8014 123.83 39.8299 123.751 39.8307Z" fill="#1A1E22"/>
<path d="M135.513 33.1863C135.444 33.1864 135.377 33.1648 135.321 33.1246C135.264 33.0844 135.222 33.0276 135.2 32.9623L130.807 20.2117C130.784 20.1304 130.794 20.0436 130.833 19.9691C130.873 19.8945 130.939 19.8378 131.019 19.8104C131.099 19.783 131.186 19.7871 131.263 19.8217C131.339 19.8564 131.4 19.9191 131.432 19.9969L135.819 32.7462C135.833 32.7873 135.839 32.8309 135.837 32.8744C135.834 32.9179 135.823 32.9604 135.804 32.9996C135.785 33.0387 135.758 33.0737 135.726 33.1026C135.693 33.1314 135.655 33.1536 135.614 33.1677C135.581 33.179 135.547 33.1853 135.513 33.1863Z" fill="#1A1E22"/>
<path d="M63.8816 206.935L69.2056 208.283C69.7871 205.462 70.3696 202.641 70.9529 199.82C69.2692 199.697 66.0915 198.673 65.1529 200.444C64.8321 201.049 63.7742 206.906 63.8816 206.935Z" fill="#FFBD00"/>
<path d="M69.2056 208.615C69.1779 208.614 69.1503 208.611 69.1234 208.604L63.8007 207.257H63.7914C63.7433 207.243 63.6989 207.218 63.6613 207.185C63.6238 207.152 63.5939 207.111 63.574 207.065C63.5369 206.979 63.468 206.818 64.042 203.786C64.2567 202.652 64.6492 200.69 64.8599 200.292C65.7097 198.69 68.0482 199.059 69.7557 199.328C70.2052 199.4 70.6307 199.461 70.9767 199.491C71.0237 199.495 71.0695 199.508 71.1109 199.531C71.1523 199.553 71.1884 199.584 71.2168 199.622C71.2453 199.66 71.2654 199.703 71.2759 199.749C71.2864 199.795 71.287 199.843 71.2777 199.889L69.5304 208.352C69.521 208.396 69.5029 208.438 69.4772 208.475C69.4515 208.511 69.4186 208.543 69.3806 208.567C69.3278 208.599 69.2672 208.615 69.2056 208.615ZM64.2249 206.68L68.951 207.873L70.5538 200.113C70.2741 200.078 69.9692 200.031 69.6523 199.98C68.0615 199.73 66.073 199.417 65.4459 200.599C65.3518 200.777 65.0906 201.824 64.7207 203.768C64.4689 205.083 64.2833 206.21 64.2249 206.68Z" fill="#1A1E22"/>
<path d="M80.9565 214.488C81.862 212.527 78.7625 211.099 77.5773 210.245C75.7099 208.9 73.7867 207.636 71.8079 206.452C71.2166 206.098 70.4384 205.438 69.757 205.314C69.1101 205.196 68.1662 205.485 67.5034 205.523C67.0685 205.548 63.6178 205.843 63.6005 205.593C63.7689 208.124 60.737 213.052 60.7291 212.944L80.9565 214.488Z" fill="white"/>
<path d="M80.9565 214.819H80.9313L60.7304 213.277C60.6451 213.279 60.5622 213.249 60.499 213.191C60.4358 213.134 60.3971 213.055 60.391 212.97C60.3871 212.921 60.3937 212.872 60.4104 212.826C60.4271 212.781 60.4535 212.739 60.4878 212.704L60.4997 212.694C61.0675 211.8 61.5763 210.87 62.0229 209.91C62.8979 208.054 63.3261 206.566 63.2638 205.617C63.2595 205.553 63.2742 205.488 63.3062 205.432C63.3382 205.375 63.386 205.33 63.4437 205.3C63.5014 205.271 63.5664 205.259 63.6308 205.266C63.6952 205.273 63.7561 205.299 63.806 205.34C64.0327 205.383 64.8109 205.389 67.1202 205.22L67.4808 205.194C67.7414 205.172 68.0007 205.137 68.2577 205.088C68.7959 204.998 69.3514 204.904 69.8194 204.99C70.3814 205.092 70.9608 205.487 71.4712 205.836C71.6528 205.961 71.8265 206.077 71.9816 206.17C73.9555 207.351 75.9043 208.633 77.7735 209.979C77.9684 210.119 78.2282 210.284 78.504 210.456C79.949 211.366 82.1324 212.739 81.2601 214.629C81.233 214.687 81.1899 214.735 81.1361 214.769C81.0823 214.802 81.02 214.82 80.9565 214.819ZM61.3123 212.657L80.7338 214.139C81.0732 212.975 79.7077 211.997 78.1487 211.016C77.8637 210.837 77.5946 210.667 77.3825 210.514C75.5265 209.179 73.5963 207.908 71.6382 206.736C71.4659 206.634 71.2856 206.511 71.0947 206.381C70.6386 206.069 70.1216 205.718 69.6974 205.64C69.3434 205.575 68.8463 205.658 68.3717 205.739C68.0907 205.793 67.8071 205.831 67.5219 205.853L67.1733 205.878C65.3173 206.011 64.4052 206.044 63.9333 206.011C63.8617 207.349 63.163 209.075 62.5545 210.349C62.1568 211.183 61.7724 211.876 61.5205 212.312C61.437 212.446 61.3707 212.559 61.3123 212.657Z" fill="#1A1E22"/>
<path d="M61.4476 211.131C61.1732 211.794 60.2916 212.3 60.0172 212.967C66.7252 214.228 73.1866 214.734 80.9632 214.727L81.1276 213.965C81.1317 213.944 81.1315 213.923 81.127 213.902C81.1225 213.882 81.1137 213.862 81.1012 213.845C81.0888 213.828 81.0729 213.814 81.0546 213.803C81.0363 213.793 81.016 213.786 80.995 213.784C79.2875 213.646 65.715 212.518 61.4476 211.131Z" fill="#1A1E22"/>
<path d="M80.8187 215.059C72.891 215.059 66.4508 214.513 59.9549 213.293C59.9066 213.283 59.8611 213.263 59.8214 213.234C59.7818 213.205 59.7491 213.168 59.7255 213.125C59.7019 213.081 59.6884 213.034 59.6859 212.984C59.6833 212.935 59.6919 212.886 59.7109 212.841C59.8727 212.443 60.1895 212.126 60.4971 211.816C60.7702 211.539 61.0273 211.278 61.1414 211.005C61.1733 210.928 61.2332 210.865 61.3091 210.83C61.385 210.795 61.4714 210.79 61.551 210.815C65.7932 212.194 79.4691 213.334 81.0149 213.453C81.0836 213.459 81.1505 213.478 81.211 213.511C81.2715 213.544 81.3242 213.59 81.3656 213.645C81.407 213.7 81.4362 213.764 81.4512 213.831C81.4661 213.898 81.4666 213.968 81.4524 214.035L81.288 214.796C81.2725 214.871 81.2317 214.938 81.1726 214.987C81.1135 215.035 81.0395 215.061 80.9632 215.061L80.8187 215.059ZM60.5514 212.73C66.8127 213.874 73.0594 214.391 80.702 214.396L80.767 214.098C78.5305 213.913 66.0517 212.845 61.6199 211.528C61.4327 211.802 61.2162 212.055 60.9743 212.281C60.8179 212.434 60.6721 212.581 60.5514 212.73Z" fill="#1A1E22"/>
<path d="M37.5439 204.007L42.1839 206.955L46.4698 199.457C44.9095 198.812 42.209 196.845 40.7693 198.234C40.2788 198.704 37.4564 203.943 37.5439 204.007Z" fill="#FFBD00"/>
<path d="M42.1839 207.285C42.1206 207.284 42.0586 207.267 42.0049 207.233L37.3649 204.285H37.3583C37.3166 204.256 37.2818 204.219 37.2563 204.175C37.2308 204.132 37.2154 204.083 37.2112 204.033C37.2032 203.94 37.1873 203.768 38.6694 201.065C39.2262 200.054 40.2072 198.311 40.5254 198C41.8299 196.743 43.9364 197.826 45.4756 198.617C45.8799 198.826 46.263 199.015 46.5852 199.148C46.6285 199.166 46.6675 199.193 46.6997 199.227C46.7319 199.262 46.7566 199.302 46.7721 199.347C46.7872 199.391 46.7927 199.438 46.7881 199.485C46.7836 199.532 46.7691 199.578 46.7456 199.618L42.4596 207.116C42.4373 207.155 42.4073 207.189 42.3715 207.216C42.3358 207.243 42.2949 207.262 42.2515 207.273C42.2294 207.279 42.2068 207.283 42.1839 207.285ZM37.9549 203.874L42.0725 206.492L46.0045 199.614C45.7487 199.494 45.4742 199.349 45.1879 199.206C43.7522 198.469 41.9638 197.549 41.0013 198.477C40.8582 198.609 40.2841 199.53 39.3296 201.261C38.6827 202.427 38.1551 203.44 37.9549 203.874Z" fill="#1A1E22"/>
<path d="M50.3886 216.669C51.8615 215.148 49.7642 212.775 49.0722 211.58C47.9842 209.698 46.8198 207.873 45.579 206.105C45.2091 205.575 44.7915 204.699 44.2612 204.354C43.7588 204.025 42.5869 204.486 41.0398 203.824C39.9628 203.363 38.9539 202.757 38.0411 202.023C37.2669 204.436 34.1568 207.819 34.1886 207.724L50.3886 216.669Z" fill="white"/>
<path d="M50.3873 216.998C50.3316 216.998 50.2769 216.984 50.2282 216.957L34.0547 208.027C33.9788 207.994 33.9178 207.935 33.8833 207.86C33.8488 207.784 33.8433 207.699 33.8678 207.62C33.8899 207.547 33.9368 207.485 34.0003 207.443C34.3039 207.144 37.0229 204.097 37.7189 201.925C37.7356 201.873 37.7648 201.826 37.804 201.788C37.8432 201.75 37.8912 201.723 37.9436 201.708C37.9961 201.693 38.0514 201.691 38.1047 201.703C38.158 201.714 38.2076 201.739 38.2492 201.774C39.1383 202.485 40.1193 203.073 41.1657 203.521C42.0102 203.883 42.7327 203.883 43.312 203.883C43.78 203.883 44.1485 203.883 44.4389 204.073C44.8843 204.364 45.2343 204.93 45.5392 205.429C45.6479 205.607 45.75 205.774 45.8468 205.911C47.0863 207.679 48.2675 209.529 49.3559 211.412C49.4686 211.608 49.629 211.847 49.7987 212.101C50.6869 213.427 52.0298 215.445 50.6219 216.898C50.5915 216.929 50.5551 216.954 50.5148 216.972C50.4745 216.989 50.4311 216.998 50.3873 216.998ZM34.7321 207.642L50.3091 216.244C51.0568 215.174 50.0201 213.622 49.2485 212.47C49.0722 212.205 48.9065 211.958 48.7832 211.743C47.7041 209.878 46.5295 208.043 45.3059 206.292C45.1972 206.138 45.0898 205.962 44.9758 205.776C44.7106 205.336 44.3991 204.838 44.0783 204.628C43.9523 204.546 43.6567 204.546 43.3134 204.546C42.7062 204.546 41.8763 204.546 40.9059 204.131C39.9444 203.717 39.0342 203.192 38.1935 202.568C37.711 203.749 36.8148 205.047 36.1069 205.974C35.6349 206.592 35.2173 207.086 34.9495 207.391C34.8687 207.489 34.7971 207.573 34.7321 207.644V207.642Z" fill="#1A1E22"/>
<path d="M34.9416 206.896C34.4657 207.427 33.531 207.591 33.0551 208.119C38.3274 211.577 43.6607 214.25 50.3051 216.894L50.7214 216.24C50.7331 216.223 50.7412 216.203 50.7449 216.182C50.7486 216.162 50.7479 216.14 50.7429 216.12C50.7379 216.1 50.7287 216.081 50.7158 216.064C50.703 216.047 50.6868 216.034 50.6683 216.024C49.2658 215.316 38.0835 209.642 34.9416 206.896Z" fill="#1A1E22"/>
<path d="M50.3051 217.225C50.2633 217.225 50.2219 217.217 50.1831 217.201C43.3505 214.484 38.0119 211.766 32.8735 208.396C32.8335 208.37 32.7997 208.335 32.7744 208.295C32.749 208.254 32.7327 208.208 32.7265 208.161C32.7204 208.114 32.7245 208.065 32.7386 208.02C32.7528 207.974 32.7766 207.932 32.8085 207.896C33.0896 207.585 33.478 207.395 33.8519 207.209C34.1859 207.046 34.5001 206.891 34.6963 206.679C34.7547 206.615 34.8361 206.576 34.9229 206.571C35.0097 206.566 35.095 206.595 35.1603 206.653C38.2784 209.376 49.5428 215.091 50.8181 215.734C50.8771 215.764 50.9291 215.806 50.9709 215.857C51.0127 215.909 51.0433 215.968 51.0607 216.032C51.0796 216.099 51.0841 216.169 51.0738 216.237C51.0635 216.306 51.0387 216.371 51.0011 216.43L50.5848 217.082C50.5537 217.127 50.5119 217.164 50.4631 217.189C50.4142 217.214 50.3599 217.226 50.3051 217.225ZM33.6146 208.087C38.5355 211.279 43.6726 213.883 50.1738 216.484L50.3369 216.228C48.4557 215.275 38.2731 210.072 34.9509 207.338C34.6987 207.521 34.4286 207.677 34.1448 207.805C33.9566 207.898 33.7736 207.984 33.6146 208.087Z" fill="#1A1E22"/>
<path d="M88.9187 106.764C92.8826 163.216 75.6127 191.183 71.9233 202.125C68.9802 202.27 66.472 202.707 63.5714 202.178C65.5413 190.964 67.6426 174.235 69.2453 162.963C70.7447 152.404 68.4937 119.671 68.959 109.016C73.3378 112.765 83.6544 104.416 88.9187 106.764Z" fill="white"/>
<path d="M66.5581 202.764C65.5358 202.769 64.5152 202.68 63.509 202.499C63.4232 202.483 63.347 202.434 63.2973 202.362C63.2476 202.29 63.2284 202.202 63.2439 202.116C64.6584 194.066 66.1445 183.136 67.457 173.492C67.9753 169.683 68.4645 166.086 68.9152 162.911C69.8141 156.584 69.358 142.171 68.955 129.455C68.6899 121.121 68.4406 113.251 68.6262 108.996C68.6294 108.934 68.6499 108.874 68.6852 108.823C68.7206 108.772 68.7695 108.732 68.8264 108.707C68.8833 108.682 68.9461 108.674 69.0075 108.683C69.069 108.692 69.1266 108.719 69.1737 108.759C71.3426 110.615 75.3117 109.219 79.1483 107.867C82.7369 106.603 86.4489 105.295 89.0499 106.455C89.1057 106.48 89.1535 106.52 89.1882 106.57C89.2228 106.62 89.2428 106.679 89.2461 106.74C90.6885 127.279 89.4476 146.486 85.5567 163.825C82.2928 178.375 77.8199 188.819 74.861 195.73C73.7182 198.4 72.8141 200.511 72.2348 202.226C72.2132 202.289 72.1733 202.344 72.1201 202.384C72.067 202.424 72.003 202.448 71.9365 202.451C71.214 202.486 70.51 202.54 69.8313 202.592C68.727 202.681 67.6518 202.764 66.5581 202.764ZM63.9585 201.908C65.9709 202.227 67.8255 202.087 69.7822 201.937C70.3974 201.889 71.0297 201.842 71.682 201.804C72.2706 200.1 73.1522 198.043 74.2551 195.468C77.2048 188.574 81.6618 178.17 84.9124 163.679C88.7768 146.459 90.0177 127.388 88.6018 106.989C86.2434 106.077 82.7515 107.306 79.3723 108.497C75.6299 109.814 71.7695 111.174 69.2705 109.647C69.1313 113.996 69.3699 121.507 69.6205 129.437C70.0182 142.18 70.4822 156.625 69.5754 163.008C69.1247 166.182 68.6355 169.778 68.1172 173.584C66.822 183.105 65.3571 193.878 63.9585 201.908Z" fill="#1A1E22"/>
<path d="M48.3391 109.101C48.6042 109.057 47.2586 117.678 48.6466 129.302C50.3356 143.451 52.4262 158.771 48.3112 172.746C46.9498 177.369 45.3085 181.903 43.5175 186.381C43.2272 187.106 40.0455 194.534 38.6443 198.236C40.6156 199.429 42.6532 200.507 44.6841 201.595C45.2648 201.907 45.8428 202.219 46.4235 202.523C46.7801 202.062 47.1035 201.595 47.2719 201.394C49.6197 198.645 51.4571 195.495 53.4722 192.501C59.9283 182.468 65.1383 169.723 68.8675 158.31C70.4769 153.39 71.7682 146.47 72.3793 141.325C73.2476 134.008 74.0908 125.228 73.7925 117.86C73.6772 114.986 72.9242 100.105 73.302 100.044C65.5466 101.33 56.0944 107.826 48.3391 109.101Z" fill="white"/>
<path d="M46.4261 202.86C46.3716 202.86 46.3178 202.847 46.2697 202.821C45.933 202.642 45.5975 202.461 45.2621 202.28L44.5304 201.883L44.0876 201.645C42.2316 200.652 40.3107 199.624 38.4759 198.515C38.4102 198.476 38.3603 198.414 38.335 198.342C38.3096 198.269 38.3102 198.19 38.3367 198.118C39.4052 195.295 41.468 190.405 42.5789 187.777C42.9104 186.994 43.1477 186.428 43.2166 186.257C45.2051 181.296 46.7655 176.844 47.9997 172.651C51.9251 159.32 50.2017 144.976 48.53 131.104C48.4597 130.514 48.3881 129.926 48.3192 129.341C47.2852 120.681 47.7637 113.668 47.9692 110.672C48.0143 110.009 48.0527 109.44 48.0448 109.248C48.0297 109.218 48.0194 109.186 48.0143 109.153C48.0071 109.11 48.0085 109.066 48.0183 109.024C48.0282 108.981 48.0463 108.941 48.0717 108.906C48.0971 108.87 48.1292 108.84 48.1662 108.817C48.2032 108.795 48.2444 108.779 48.2874 108.772C52.1213 108.143 56.4749 106.177 60.6853 104.274C64.9342 102.356 69.3289 100.371 73.249 99.7271C73.2927 99.7181 73.3378 99.718 73.3815 99.7269C73.4252 99.7358 73.4667 99.7534 73.5035 99.7787C73.5403 99.804 73.5715 99.8365 73.5954 99.8742C73.6193 99.9118 73.6354 99.954 73.6426 99.998C73.6499 100.042 73.6481 100.087 73.6375 100.13C73.6269 100.174 73.6077 100.215 73.581 100.25C73.5542 100.286 73.5206 100.316 73.482 100.338C73.4434 100.361 73.4007 100.375 73.3564 100.381C69.5224 101.012 65.1688 102.978 60.9584 104.879C56.8222 106.747 52.5482 108.677 48.7076 109.372C48.7076 109.637 48.6771 110.041 48.6307 110.718C48.4266 113.695 47.9507 120.661 48.9768 129.262C49.047 129.847 49.1173 130.436 49.1875 131.024C50.8619 144.963 52.5933 159.376 48.6307 172.838C47.3899 177.054 45.8176 181.523 43.8264 186.503C43.7562 186.68 43.5295 187.218 43.1848 188.035C42.1123 190.579 40.1357 195.25 39.0539 198.093C40.8025 199.139 42.6333 200.117 44.3991 201.063L44.8419 201.301L45.575 201.698L46.332 202.105C46.4354 201.973 46.5348 201.831 46.6263 201.708C46.7933 201.481 46.9246 201.301 47.024 201.187C48.7328 199.186 50.199 196.926 51.6162 194.74C52.1319 193.944 52.6648 193.123 53.2071 192.324C60.2691 181.349 65.4552 167.718 68.5626 158.216C70.286 152.943 71.5229 145.806 72.0598 141.294C72.659 136.247 73.0475 132.147 73.2821 128.401C73.2878 128.313 73.3281 128.231 73.3942 128.172C73.4603 128.114 73.5469 128.085 73.6348 128.09C73.7227 128.096 73.8047 128.136 73.8629 128.202C73.9211 128.269 73.9506 128.355 73.945 128.443C73.709 132.205 73.3192 136.314 72.7187 141.373C72.1791 145.914 70.933 153.104 69.1937 158.421C66.0743 167.966 60.8656 181.649 53.7625 192.689C53.2243 193.484 52.6927 194.308 52.1783 195.1C50.7492 197.305 49.2724 199.584 47.5384 201.618C47.4575 201.713 47.3263 201.892 47.1751 202.1C47.024 202.308 46.8702 202.515 46.7005 202.735C46.6678 202.776 46.6259 202.809 46.5782 202.83C46.5306 202.852 46.4784 202.862 46.4261 202.86Z" fill="#1A1E22"/>
<path d="M107.123 100.003C108.44 99.4115 109.755 98.8176 111.082 98.2516C108.62 97.1918 106.43 95.5882 104.676 93.5612C100.845 89.1864 99.108 82.7435 97.8221 77.1226C97.655 76.3961 83.2394 80.1266 83.7604 83.1187C84.1674 85.4705 84.5717 86.6411 85.3685 88.8656C88.5873 97.8485 94.3183 100.544 99.9379 102.87C102.396 102.092 104.77 101.058 107.123 100.003Z" fill="white"/>
<path d="M99.9379 103.198C99.8925 103.198 99.8475 103.189 99.8054 103.173C93.5958 100.601 88.1989 97.7584 85.0517 88.9744C84.243 86.7207 83.836 85.5275 83.429 83.1718C83.2222 81.9786 84.7693 80.6742 88.0265 79.3113C90.5305 78.288 93.1205 77.4894 95.766 76.9251C97.663 76.5446 98.0541 76.6599 98.1403 77.0417C99.4275 82.6468 101.118 88.9916 104.92 93.3386C106.64 95.3324 108.791 96.9094 111.21 97.9507C111.27 97.9761 111.321 98.0186 111.357 98.0728C111.393 98.127 111.412 98.1906 111.412 98.2556C111.412 98.3206 111.393 98.3841 111.357 98.4383C111.321 98.4925 111.27 98.535 111.21 98.5605C110.045 99.0576 108.869 99.5852 107.732 100.096L107.257 100.309C104.972 101.334 102.532 102.4 100.036 103.186C100.004 103.195 99.9711 103.199 99.9379 103.198ZM97.4509 77.3466C95.8787 77.3466 87.3756 79.5712 84.7507 81.8938C84.4087 82.1961 84.0163 82.6428 84.0879 83.0538C84.4856 85.3552 84.8833 86.5245 85.6787 88.745C88.7159 97.2215 93.9365 100.013 99.9512 102.508C102.371 101.742 104.757 100.701 106.987 99.7006L107.119 100.003L106.987 99.7006L107.461 99.4872C108.376 99.0762 109.317 98.6546 110.257 98.2463C108.03 97.1682 106.045 95.6482 104.424 93.7787C100.557 89.3575 98.835 82.9981 97.5305 77.3546C97.5106 77.352 97.4827 77.3519 97.4509 77.3519V77.3466Z" fill="#1A1E22"/>
<path d="M87.8753 85.2504C91.6973 82.9424 98.3112 78.557 98.0421 77.7509C96.3187 72.6404 93.8489 67.8082 89.7936 64.1188C86.9553 61.5377 83.36 59.9031 80.0259 58.8425C80.01 59.1077 77.0126 65.9138 73.3046 66.4481C70.7858 66.81 68.0416 65.9072 66.1458 64.2341C64.5683 62.8422 63.1909 61.2937 62.642 59.2906C59.2284 60.3512 56.3834 61.6146 53.3834 63.6933C48.0713 67.3721 43.5467 72.3514 40.6567 78.1513C40.0892 79.2974 39.602 80.4814 39.1984 81.6949C42.6452 82.7369 46.0072 83.9738 49.226 85.6243C50.1473 86.0962 51.0925 86.5244 52.0338 86.9606C52.0338 86.9698 52.0338 86.9791 52.0338 86.9871C51.2079 94.6549 50.1964 99.4486 49.3705 107.119C49.222 108.678 58.0936 112.82 59.1395 113.036C64.5233 114.098 69.9897 114.686 75.4761 114.795C80.116 114.904 89.2077 111.937 89.2077 111.937C88.9425 105.011 86.4052 91.7954 85.3711 88.8576C85.7595 88.6906 86.7432 85.9345 87.8753 85.2504Z" fill="#0DB1AC"/>
<path d="M75.724 115.133H75.4589C69.9529 115.023 64.4671 114.432 59.064 113.367C58.4727 113.249 55.922 112.113 53.6405 110.882C52.348 110.184 48.9131 108.33 49.0311 107.095C49.4447 103.251 49.9127 100.078 50.3647 97.0121C50.8075 94.0067 51.2649 90.9019 51.6719 87.1687L51.4346 87.0587C50.6551 86.6981 49.8437 86.3256 49.0682 85.9252C46.1715 84.4418 43.0031 83.1996 39.0963 82.0184C39.0537 82.0059 39.0142 81.9849 38.98 81.9566C38.9458 81.9284 38.9177 81.8935 38.8974 81.854C38.8773 81.8146 38.8651 81.7716 38.8617 81.7274C38.8583 81.6833 38.8637 81.6389 38.8776 81.5968C39.2873 80.3709 39.7816 79.1749 40.357 78.0175C43.1874 72.3302 47.6245 67.2873 53.1871 63.4348C56.0069 61.4833 58.8028 60.1537 62.536 58.9884C62.5784 58.975 62.6231 58.9704 62.6674 58.9747C62.7118 58.979 62.7547 58.9922 62.7938 59.0134C62.8329 59.0347 62.8673 59.0637 62.895 59.0985C62.9227 59.1334 62.943 59.1735 62.9549 59.2164C63.5249 61.2978 65.076 62.8661 66.3579 63.9995C68.2365 65.658 70.8786 66.4759 73.2516 66.1339C76.6599 65.6434 79.5513 59.3132 79.6931 58.8054C79.7063 58.717 79.754 58.6374 79.8257 58.584C79.8675 58.5555 79.9153 58.5369 79.9653 58.5296C80.0154 58.5222 80.0665 58.5263 80.1147 58.5416C84.2124 59.8448 87.5386 61.6424 90.0044 63.8842C93.5997 67.1547 96.3267 71.6594 98.3444 77.6555C98.4411 77.9472 98.6095 78.4337 94.6722 81.219C92.4265 82.8098 89.7671 84.4961 88.0344 85.5448C87.4153 85.9186 86.7922 87.0919 86.3375 87.9496C86.1663 88.3051 85.9664 88.6461 85.7396 88.969C86.8214 92.2926 89.2633 105.021 89.5245 111.939C89.527 112.011 89.5061 112.082 89.465 112.141C89.4239 112.2 89.3648 112.244 89.2965 112.267C88.9412 112.376 80.4355 115.133 75.724 115.133ZM39.6226 81.4815C43.4194 82.6441 46.5268 83.8678 49.3771 85.3327C50.1447 85.7304 50.9454 86.0963 51.7196 86.4542L52.173 86.665C52.2357 86.694 52.2878 86.742 52.3218 86.8022C52.3558 86.8623 52.3701 86.9317 52.3626 87.0004V87.0282C51.9489 90.8727 51.4823 94.0385 51.0302 97.1035C50.5782 100.169 50.1115 103.334 49.7045 107.158C49.6767 107.449 50.5437 108.445 53.9693 110.294C56.2694 111.536 58.7339 112.618 59.2098 112.714C64.5751 113.77 70.0222 114.356 75.4893 114.466C79.599 114.559 87.4087 112.163 88.8789 111.701C88.5713 104.862 86.0949 91.8869 85.0702 88.9704C85.045 88.8964 85.0468 88.816 85.0752 88.7432C85.1035 88.6705 85.1567 88.6101 85.2253 88.5727C85.33 88.4732 85.5779 88.0066 85.7781 87.6301C86.2964 86.6517 86.9434 85.4361 87.7189 84.9681C92.7367 81.9375 97.4588 78.5597 97.7266 77.8093C95.7486 71.9458 93.0867 67.5471 89.5842 64.3628C87.2523 62.2416 84.109 60.5249 80.242 59.2588C79.7165 60.4731 79.0792 61.6359 78.3383 62.7322C77.2035 64.4145 75.4217 66.4826 73.3656 66.7782C70.807 67.1467 67.9607 66.2678 65.9417 64.4847C64.6557 63.3499 63.1166 61.7936 62.4365 59.7122C58.9301 60.8324 56.2681 62.1144 53.5875 63.9704C48.1163 67.7605 43.7535 72.72 40.9735 78.3051C40.4566 79.3343 40.0054 80.3953 39.6226 81.4815ZM79.7011 58.8001C79.7011 58.8121 79.7011 58.8213 79.7011 58.8267C79.7011 58.832 79.7011 58.8094 79.7011 58.8001Z" fill="#1A1E22"/>
<path d="M84.3888 85.9134L85.4069 88.9625C85.7291 89.2276 94.6537 82.037 98.9914 79.082C98.9914 79.082 97.7306 75.8473 97.4178 76.184C93.8119 80.0538 84.3888 85.9134 84.3888 85.9134Z" fill="#1A1E22"/>
<path d="M85.4122 89.3084C85.3325 89.3064 85.2564 89.2747 85.1988 89.2196C85.1494 89.1794 85.1122 89.1261 85.0914 89.0658L84.0759 86.0194C84.0516 85.9495 84.0515 85.8735 84.0755 85.8036C84.0995 85.7336 84.1464 85.6737 84.2085 85.6336C84.3026 85.5739 93.6355 79.7462 97.1698 75.956C97.2168 75.9057 97.2757 75.8682 97.3411 75.8469C97.4064 75.8255 97.4761 75.8211 97.5437 75.834C97.7014 75.8645 98.119 75.9441 99.2949 78.9613C99.3231 79.0316 99.3263 79.1094 99.3041 79.1817C99.2819 79.2541 99.2356 79.3167 99.173 79.3591C97.2295 80.6848 94.3196 82.8907 91.7491 84.8382C90.1582 86.0446 88.6575 87.1847 87.5387 87.9986C86.1281 89.0287 85.6575 89.3084 85.4122 89.3084ZM84.7852 86.0552L85.6111 88.5276C86.4529 88.0291 89.0433 86.0631 91.358 84.3066C93.837 82.4254 96.6343 80.3029 98.5857 78.9574C98.2052 78.0068 97.7386 76.99 97.4761 76.6029C95.9369 78.1938 93.3359 80.2711 89.7406 82.7688C87.4512 84.3596 85.4388 85.6429 84.7852 86.0552Z" fill="#1A1E22"/>
<path d="M79.4691 58.6516C78.9707 58.5032 78.4656 58.4409 77.9671 58.3401C77.9127 58.7763 77.8557 59.1779 77.8186 59.3384C77.5922 60.3276 77.2355 61.2825 76.7581 62.178C75.8075 63.9359 74.3307 65.4446 72.2626 65.947C69.5927 66.5953 66.7782 65.2841 65.1131 63.3499C64.0153 62.1211 63.2348 60.6424 62.8396 59.0427C62.8396 59.0427 61.7989 59.463 61.2713 59.6804C61.0061 59.7878 60.7277 59.8753 60.444 59.9681C60.8643 61.2182 61.4211 62.646 61.9938 63.46C64.8268 67.4914 70.4371 69.6364 74.9737 67.0487C77.9287 65.3637 79.7197 62.2244 80.409 59.0427C80.1085 58.8835 79.7939 58.7526 79.4691 58.6516Z" fill="#1A1E22"/>
<path d="M70.7102 68.5095C67.1481 68.5095 63.692 66.456 61.7207 63.6508C61.2249 62.9455 60.6893 61.7418 60.1298 60.0714C60.1157 60.0299 60.11 59.986 60.113 59.9423C60.116 59.8986 60.1276 59.8559 60.1472 59.8166C60.1668 59.7774 60.194 59.7425 60.2272 59.7139C60.2604 59.6852 60.299 59.6635 60.3406 59.6499L60.4732 59.6061C60.7105 59.5292 60.9345 59.4563 61.136 59.3715C61.6663 59.1527 62.707 58.7325 62.707 58.7325C62.7507 58.715 62.7976 58.7069 62.8446 58.709C62.8916 58.711 62.9376 58.723 62.9797 58.7442C63.0217 58.7654 63.0587 58.7953 63.0883 58.8319C63.1178 58.8685 63.1392 58.911 63.1511 58.9565C63.5342 60.5069 64.2906 61.9401 65.3544 63.1311C66.8246 64.8386 69.5025 66.2717 72.1751 65.6221C74.3956 65.0826 75.7293 63.3684 76.4571 62.0176C76.9206 61.1481 77.2678 60.2214 77.4898 59.2614C77.5097 59.1739 77.5508 58.9353 77.633 58.2963C77.6381 58.2512 77.6525 58.2076 77.6753 58.1684C77.6981 58.1291 77.7289 58.095 77.7656 58.0683C77.8027 58.0421 77.8447 58.0236 77.8891 58.014C77.9336 58.0045 77.9795 58.004 78.0241 58.0126C78.1765 58.0444 78.3303 58.071 78.4841 58.0988C78.8455 58.155 79.2032 58.2329 79.5553 58.3321C79.9002 58.4386 80.2344 58.5771 80.5535 58.7457C80.6181 58.7793 80.6698 58.8332 80.7007 58.8991C80.7316 58.965 80.74 59.0392 80.7245 59.1103C79.9291 62.7613 77.8875 65.7587 75.1248 67.3296C73.7821 68.1032 72.2597 68.51 70.7102 68.5095ZM60.8643 60.1788C61.3601 61.6053 61.8413 62.6698 62.2629 63.2703C64.8878 67.0048 70.2979 69.3328 74.8066 66.7609C77.3427 65.3146 79.2371 62.577 80.0285 59.2243C79.817 59.123 79.5981 59.038 79.3736 58.9698C79.0463 58.8784 78.7138 58.8062 78.378 58.7537L78.2455 58.7312C78.1991 59.0732 78.1633 59.2972 78.1368 59.4139C77.9014 60.4301 77.5327 61.4108 77.0404 62.3304C76.245 63.7966 74.7867 65.6672 72.3329 66.2651C71.8442 66.3838 71.343 66.4435 70.8401 66.4427C68.43 66.4427 66.183 65.1064 64.8533 63.562C63.7437 62.2721 63.0596 61.0352 62.6102 59.4855C62.2602 59.6273 61.722 59.8447 61.3893 59.9826C61.2235 60.0568 61.0432 60.1192 60.8643 60.1788Z" fill="#1A1E22"/>
<path d="M68.0562 201.676C68.0294 201.676 68.0027 201.673 67.9767 201.667C67.892 201.646 67.8191 201.592 67.7737 201.518C67.7283 201.443 67.714 201.354 67.734 201.269L68.6064 197.732C68.6154 197.688 68.6332 197.647 68.6586 197.61C68.684 197.574 68.7165 197.542 68.7543 197.519C68.792 197.495 68.8342 197.479 68.8782 197.472C68.9222 197.465 68.9673 197.467 69.0106 197.477C69.0539 197.488 69.0946 197.507 69.1302 197.534C69.1658 197.561 69.1957 197.595 69.218 197.633C69.2403 197.672 69.2546 197.715 69.26 197.759C69.2654 197.803 69.2618 197.848 69.2494 197.891L68.377 201.428C68.3587 201.499 68.3173 201.562 68.2592 201.607C68.2011 201.652 68.1296 201.676 68.0562 201.676Z" fill="#1A1E22"/>
<path d="M41.4985 198.989C41.4648 198.989 41.4312 198.984 41.399 198.974C41.3151 198.948 41.2451 198.889 41.2044 198.811C41.1636 198.733 41.1554 198.642 41.1816 198.558L42.2581 195.126C42.2712 195.084 42.2923 195.046 42.3202 195.012C42.3482 194.979 42.3824 194.951 42.421 194.931C42.4596 194.911 42.5018 194.899 42.5451 194.895C42.5885 194.891 42.6322 194.896 42.6737 194.909C42.7152 194.922 42.7538 194.943 42.7871 194.971C42.8205 194.999 42.848 195.033 42.8682 195.072C42.8883 195.11 42.9006 195.153 42.9044 195.196C42.9083 195.239 42.9035 195.283 42.8905 195.324L41.814 198.757C41.793 198.824 41.7511 198.883 41.6944 198.925C41.6376 198.966 41.5689 198.989 41.4985 198.989Z" fill="#1A1E22"/>
<path d="M44.4018 200.57C44.3331 200.57 44.266 200.549 44.2099 200.51C44.1538 200.47 44.1114 200.414 44.0885 200.349C44.0656 200.284 44.0635 200.214 44.0823 200.148C44.1011 200.082 44.1401 200.023 44.1936 199.98L47.0386 197.704C47.1071 197.649 47.1948 197.624 47.2821 197.633C47.3695 197.643 47.4495 197.687 47.5046 197.755C47.5596 197.824 47.5851 197.911 47.5755 197.999C47.566 198.086 47.5221 198.166 47.4535 198.221L44.6086 200.497C44.5499 200.544 44.477 200.57 44.4018 200.57Z" fill="#1A1E22"/>
<path d="M185.044 94.9699C197.722 82.2915 197.722 61.7358 185.044 49.0574C172.365 36.379 151.81 36.379 139.131 49.0574C126.453 61.7358 126.453 82.2915 139.131 94.9699C151.81 107.648 172.365 107.648 185.044 94.9699Z" fill="white"/>
<path d="M58.2633 121.058C58 121.834 57.9727 122.67 58.185 123.462C58.3974 124.253 58.8396 124.964 59.456 125.504C60.0723 126.044 60.835 126.39 61.6475 126.496C62.4601 126.603 63.286 126.466 64.0208 126.103L127.559 94.6669L128.822 96.6462C133.828 103.439 140.8 108.529 148.794 111.229C170.419 118.561 193.978 106.934 201.309 85.3075C208.64 63.6814 197.013 40.125 175.389 32.7926C153.764 25.4602 130.205 37.0892 122.872 58.714C119.7 68.0451 119.976 78.204 123.651 87.3491L60.3526 118.673C59.8644 118.913 59.4285 119.247 59.07 119.657C58.7114 120.066 58.4373 120.542 58.2633 121.058ZM131.342 61.5894C137.091 44.6351 155.56 35.5196 172.513 41.2678C189.466 47.016 198.582 65.4843 192.834 82.44C187.085 99.3957 168.617 108.509 151.664 102.76C134.711 97.0121 125.594 78.5425 131.342 61.5894Z" fill="#1A1E22"/>
<path d="M62.194 126.863C61.4826 126.864 60.7813 126.695 60.1482 126.37C59.5152 126.046 58.9686 125.575 58.5539 124.997C58.1391 124.419 57.8681 123.751 57.7634 123.047C57.6587 122.344 57.7232 121.625 57.9517 120.952C58.1383 120.394 58.4336 119.88 58.8205 119.438C59.2073 118.996 59.6781 118.635 60.2054 118.376L123.226 87.194C119.642 78.0424 119.404 67.9192 122.554 58.6093C129.945 36.8121 153.694 25.0903 175.492 32.4811C197.291 39.8718 209.011 63.6151 201.62 85.4175C195.732 102.784 179.453 113.76 162.055 113.76C155.537 113.754 149.112 112.221 143.294 109.283C137.476 106.345 132.427 102.085 128.553 96.8437L128.541 96.8252L127.437 95.1018L64.1679 126.4C63.5544 126.705 62.8788 126.863 62.194 126.863ZM58.5761 121.162C58.3342 121.877 58.3096 122.647 58.5055 123.376C58.7014 124.104 59.109 124.758 59.6767 125.255C60.2444 125.751 60.9467 126.069 61.6947 126.166C62.4427 126.264 63.2029 126.137 63.8789 125.802L127.409 94.3713C127.482 94.3352 127.566 94.3272 127.645 94.349C127.724 94.3707 127.792 94.4207 127.836 94.4893L129.094 96.4606C134.057 103.198 140.973 108.246 148.903 110.919C170.355 118.191 193.724 106.657 201.003 85.2001C208.281 63.7437 196.74 40.3783 175.284 33.1002C153.828 25.8221 130.462 37.361 123.184 58.8187C120.051 68.0785 120.324 78.1524 123.956 87.2284C123.986 87.3059 123.987 87.392 123.957 87.4698C123.927 87.5476 123.87 87.6114 123.795 87.6487L60.4997 118.97C60.05 119.19 59.6485 119.498 59.3183 119.874C58.9882 120.251 58.7359 120.689 58.5761 121.164V121.162ZM162.089 104.819C156.88 104.812 151.746 103.566 147.114 101.183C142.481 98.7995 138.482 95.3481 135.447 91.1137C132.412 86.8792 130.429 81.9834 129.66 76.8307C128.892 71.678 129.361 66.4164 131.028 61.4807L131.342 61.5881L131.028 61.4807C136.835 44.3554 155.493 35.1457 172.619 40.9523C189.746 46.7588 198.954 65.4167 193.148 82.5434C190.934 89.0274 186.752 94.6587 181.184 98.6513C175.616 102.644 168.941 104.799 162.089 104.815V104.819ZM162.115 39.8758C148.725 39.8758 136.19 48.3218 131.657 61.6942C128.998 69.7446 129.629 78.5195 133.411 86.1071C137.194 93.6946 143.821 99.4798 151.851 102.202C159.88 104.925 168.659 104.364 176.277 100.642C183.894 96.92 189.732 90.3385 192.518 82.3313C198.208 65.5519 189.185 47.2706 172.405 41.582C169.091 40.4545 165.615 39.8785 162.115 39.8771V39.8758Z" fill="#1A1E22"/>
<path d="M71.039 109.882C67.0182 107.496 62.0799 106.981 58.3454 104.173C54.8986 101.586 52.979 97.1088 53.4722 92.8295C53.6397 91.4154 54.0548 90.0418 54.6985 88.7715C54.3922 88.5793 54.0847 88.3897 53.7705 88.2068C52.0259 87.1833 50.1354 86.4343 48.3351 85.5262C45.2582 83.9765 42.0964 82.7834 38.8232 81.7864C36.4118 90.3001 38.0994 100.081 44.4084 106.2C50.2415 111.86 58.4608 114.373 66.4972 115.551C68.6395 115.863 70.5021 117.6 70.9674 119.717C71.2034 120.795 70.8136 121.936 70.3868 122.951C69.932 124.031 69.0518 124.575 68.1331 125.247C67.3536 125.815 67.6293 126.554 68.552 126.44C69.8936 126.262 70.9767 125.037 71.7098 123.995C72.519 122.847 73.0388 121.52 73.2251 120.128C73.347 121.866 72.5211 123.545 71.4606 124.927C71.2723 125.171 71.0629 125.432 71.0536 125.74C71.0363 126.069 71.3108 126.348 71.6263 126.27C72.2175 126.118 72.6312 125.504 73.0183 125.077C73.4969 124.555 73.931 123.993 74.3161 123.399C74.9472 122.402 75.3767 121.247 75.3475 120.067C75.3765 120.531 75.3476 120.996 75.2613 121.453C75.1646 121.901 74.9617 122.312 74.853 122.754C74.5799 123.849 73.7116 124.674 73.4014 125.757C73.3457 125.955 73.3205 126.201 73.477 126.335C73.5278 126.373 73.5869 126.398 73.6494 126.409C73.7118 126.419 73.7759 126.414 73.8362 126.395C74.454 126.226 74.9233 125.65 75.3144 125.178C76.5579 123.676 77.4593 121.751 77.5893 119.776C77.8783 115.317 74.6078 112.003 71.039 109.882Z" fill="white"/>
<path d="M68.3519 126.782C67.8136 126.782 67.5074 126.517 67.3974 126.24C67.2648 125.916 67.3403 125.415 67.9276 124.983C68.0244 124.911 68.1212 124.842 68.2166 124.773C69.0121 124.201 69.7014 123.713 70.0726 122.826C70.4929 121.829 70.8508 120.773 70.6347 119.793C70.2025 117.819 68.438 116.174 66.4415 115.882C56.4988 114.424 49.2154 111.339 44.1698 106.443C38.1259 100.578 35.9001 90.8661 38.4958 81.7002C38.5076 81.6578 38.5279 81.6182 38.5553 81.5837C38.5827 81.5492 38.6168 81.5205 38.6554 81.4994C38.6941 81.4782 38.7366 81.4651 38.7805 81.4606C38.8243 81.4562 38.8686 81.4606 38.9107 81.4735C42.4835 82.5606 45.6121 83.7909 48.477 85.2345C49.1398 85.566 49.8212 85.8828 50.4828 86.1891C51.6308 86.7193 52.8186 87.2695 53.9296 87.9244C54.2663 88.1219 54.5924 88.3221 54.8576 88.4944C54.9278 88.538 54.9791 88.6062 55.0014 88.6857C55.0238 88.7652 55.0155 88.8502 54.9782 88.924C54.3512 90.1594 53.9473 91.4959 53.7851 92.8719C53.3198 97.0505 55.1824 101.384 58.5443 103.916C60.5713 105.439 63.0278 106.303 65.4048 107.13C67.3616 107.815 69.3819 108.523 71.2074 109.604C73.8588 111.174 78.2588 114.588 77.9155 119.79C77.7895 121.719 76.9543 123.705 75.565 125.381L75.5438 125.406C75.1355 125.9 74.6277 126.514 73.9185 126.706C73.8056 126.74 73.6861 126.746 73.5705 126.723C73.4549 126.7 73.3468 126.648 73.2556 126.574C73.123 126.46 72.9229 126.191 73.0767 125.654C73.1018 125.566 73.1297 125.481 73.1602 125.398L73.0528 125.53C72.6948 125.956 72.2892 126.437 71.7019 126.591C71.5856 126.621 71.4638 126.623 71.3464 126.597C71.2291 126.571 71.1197 126.518 71.0271 126.441C70.9228 126.355 70.8403 126.245 70.7862 126.12C70.7321 125.996 70.7079 125.861 70.7156 125.725C70.7156 125.704 70.7156 125.682 70.7156 125.66C70.0156 126.309 69.3103 126.675 68.5839 126.77C68.5069 126.779 68.4294 126.783 68.3519 126.782ZM39.0539 82.2067C36.6677 91.0451 38.8431 100.34 44.6417 105.967C49.5839 110.763 56.7493 113.789 66.5476 115.226C67.6889 115.408 68.75 115.926 69.5953 116.714C70.4407 117.502 71.032 118.524 71.2936 119.65C71.5481 120.811 71.161 121.987 70.6944 123.083C70.2516 124.136 69.4562 124.707 68.6143 125.312L68.3293 125.518C68.0443 125.725 67.986 125.916 68.0178 125.993C68.0496 126.07 68.2299 126.144 68.5083 126.108C69.4641 125.976 70.4504 125.207 71.4394 123.803C72.218 122.699 72.7183 121.422 72.8977 120.083C72.899 120.04 72.9088 119.997 72.9267 119.957C72.9446 119.917 72.9701 119.882 73.0018 119.852C73.0335 119.822 73.0708 119.799 73.1115 119.783C73.1522 119.768 73.1955 119.76 73.239 119.762C73.2826 119.763 73.3254 119.773 73.3651 119.791C73.4048 119.809 73.4406 119.834 73.4705 119.866C73.5003 119.897 73.5237 119.935 73.5391 119.975C73.5546 120.016 73.5618 120.06 73.5605 120.103C73.6732 121.704 73.0568 123.393 71.7284 125.126L71.7178 125.139C71.5614 125.344 71.3996 125.554 71.389 125.753C71.3866 125.785 71.3916 125.817 71.4035 125.846C71.4155 125.876 71.4341 125.902 71.458 125.923C71.4699 125.934 71.4845 125.942 71.5003 125.945C71.5161 125.949 71.5325 125.949 71.5481 125.944C71.9312 125.846 72.2494 125.467 72.557 125.101C72.6312 125.012 72.7055 124.926 72.777 124.845C73.2436 124.337 73.6667 123.791 74.0418 123.212C74.7126 122.151 75.0506 121.063 75.0215 120.067C75.019 119.98 75.0513 119.894 75.1115 119.831C75.1716 119.767 75.2546 119.729 75.3423 119.727H75.3529C75.4392 119.726 75.5221 119.76 75.584 119.82C75.6459 119.88 75.6819 119.962 75.6843 120.049C75.7128 120.537 75.6812 121.027 75.5902 121.507C75.5309 121.759 75.4552 122.006 75.3635 122.248C75.2932 122.444 75.2309 122.63 75.1792 122.819C75.0268 123.433 74.7099 123.956 74.4037 124.461C74.1266 124.919 73.8641 125.351 73.7262 125.834C73.6997 125.908 73.6906 125.987 73.6997 126.065C73.7177 126.068 73.7361 126.068 73.7541 126.065C74.2605 125.932 74.6754 125.424 75.0427 124.98L75.0639 124.955C76.3644 123.385 77.1465 121.535 77.2645 119.744C77.4316 117.201 76.4598 113.477 70.88 110.171C69.1128 109.124 67.1216 108.428 65.1954 107.753C62.7707 106.904 60.2651 106.029 58.1559 104.439C54.6083 101.773 52.6436 97.2003 53.1514 92.791C53.3109 91.4393 53.6916 90.123 54.2782 88.8948C54.0714 88.7622 53.8447 88.6297 53.6154 88.4971C52.5283 87.8581 51.3617 87.3159 50.2216 86.7909C49.5587 86.482 48.8654 86.1625 48.1959 85.8258C45.2537 84.3662 42.1943 83.1556 39.0499 82.2067H39.0539Z" fill="#1A1E22"/>
<path d="M56.2363 87.1568L54.725 89.1918C54.4718 89.5325 43.2617 84.7189 38.2134 82.7966C38.2134 82.7966 39.1308 79.4214 39.5272 79.6838C44.0836 82.7051 51.2967 84.8408 56.2363 87.1568Z" fill="#1A1E22"/>
<path d="M54.7038 89.5404C54.1509 89.5404 52.3559 88.8696 45.0487 85.8921C42.5113 84.858 39.8877 83.7882 38.0954 83.1081C38.0181 83.079 37.9545 83.0221 37.917 82.9485C37.8795 82.875 37.8708 82.79 37.8926 82.7104C38.7423 79.5871 39.1838 79.4213 39.3283 79.367C39.3906 79.3429 39.4578 79.3341 39.5242 79.3412C39.5906 79.3484 39.6544 79.3713 39.7101 79.4081C42.6081 81.3277 46.5785 82.8827 50.4164 84.3861C52.5707 85.2292 54.6043 86.026 56.3821 86.8585C56.4267 86.8793 56.4662 86.9097 56.4976 86.9477C56.529 86.9856 56.5515 87.03 56.5636 87.0778C56.5756 87.1255 56.5769 87.1754 56.5673 87.2236C56.5577 87.2719 56.5374 87.3175 56.508 87.357L54.9901 89.3892C54.9624 89.4397 54.9205 89.4809 54.8696 89.5077C54.8187 89.5346 54.761 89.5459 54.7038 89.5404ZM38.6124 82.5951C40.3995 83.2818 42.8878 84.2959 45.2992 85.2783C49.039 86.8028 53.6511 88.6813 54.5566 88.8576L55.7298 87.2814C54.0608 86.5191 52.169 85.7781 50.1752 84.9972C46.3797 83.5098 42.4583 81.9746 39.5192 80.0696C39.2938 80.4514 38.9094 81.5557 38.6124 82.5951Z" fill="#1A1E22"/>
<path d="M129.138 92.9859C129.065 92.7022 128.773 92.4556 128.493 92.5365C128.264 92.6041 128.142 92.848 128.047 93.0668L125.512 98.929C125.91 97.5198 126.334 96.5427 126.66 95.1083C126.803 94.4773 127.504 92.3628 126.432 92.1335C125.557 91.9466 125.226 94.2002 125.017 94.7756C124.597 95.9409 124.141 97.0929 123.759 98.2715C123.979 97.5874 125.35 90.6845 123.275 91.2917C122.933 91.3924 122.745 92.095 122.745 92.4516C122.745 94.1658 122.542 96.1848 121.412 97.4707C120.25 98.7964 117.461 99.6542 117.461 99.6542C117.273 99.7257 106.387 105.14 106.387 105.14C108.807 105.69 111.471 106.165 113.838 106.025C117.397 105.813 121.149 105.033 124.128 102.976C125.637 101.957 126.856 100.563 127.664 98.9303C128.447 97.3024 129.61 94.8127 129.138 92.9859Z" fill="white"/>
<path d="M112.968 106.382C110.668 106.382 108.237 105.902 106.313 105.463C106.247 105.448 106.187 105.413 106.141 105.362C106.096 105.311 106.067 105.248 106.059 105.18C106.051 105.112 106.063 105.044 106.096 104.984C106.128 104.924 106.178 104.875 106.239 104.844C108.796 103.573 117.155 99.4169 117.344 99.3466H117.363C117.391 99.3373 120.077 98.4955 121.162 97.26C122.276 95.9939 122.41 93.9139 122.414 92.4583C122.414 92.0606 122.61 91.1498 123.183 90.9815C123.357 90.9187 123.545 90.9077 123.725 90.9498C123.905 90.992 124.069 91.0854 124.197 91.2188C124.771 91.8074 124.812 93.2829 124.681 94.7425C124.689 94.7186 124.697 94.6947 124.706 94.6722C124.743 94.5688 124.789 94.3832 124.839 94.1698C125.104 93.1463 125.489 91.6019 126.496 91.8166C126.627 91.8429 126.752 91.8961 126.862 91.973C126.972 92.0499 127.065 92.1488 127.135 92.2634C127.416 92.7181 127.375 93.3995 127.237 94.1008L127.738 92.9435C127.828 92.7327 128.003 92.3416 128.394 92.225C128.493 92.1965 128.597 92.1887 128.7 92.2019C128.802 92.2151 128.901 92.2491 128.989 92.3019C129.103 92.3674 129.202 92.4548 129.282 92.559C129.362 92.6632 129.42 92.7822 129.453 92.909C129.928 94.7491 128.93 97.0598 127.957 99.0801C127.123 100.764 125.867 102.202 124.311 103.255C121.697 105.062 118.178 106.108 113.852 106.364C113.563 106.377 113.269 106.383 112.968 106.382ZM107.375 105.019C109.348 105.438 111.694 105.815 113.818 105.695C118.022 105.446 121.427 104.44 123.94 102.703C125.401 101.716 126.581 100.366 127.364 98.7858C128.027 97.4031 129.272 94.8286 128.822 93.0681C128.799 92.9865 128.746 92.9166 128.674 92.8719C128.65 92.8553 128.621 92.8486 128.593 92.8533C128.493 92.8825 128.398 93.1052 128.357 93.1993L125.821 99.0629C125.787 99.1398 125.726 99.2012 125.649 99.2345C125.572 99.2679 125.485 99.2709 125.406 99.2428C125.327 99.2147 125.262 99.1576 125.223 99.0832C125.184 99.0087 125.175 98.9223 125.198 98.8415C125.362 98.2582 125.531 97.7478 125.694 97.2507C125.947 96.5227 126.163 95.7825 126.342 95.0328C126.359 94.9559 126.384 94.8565 126.415 94.7425C126.558 94.191 126.855 93.0456 126.582 92.6015C126.559 92.5629 126.528 92.5297 126.491 92.5043C126.454 92.4789 126.413 92.4618 126.368 92.4543C125.992 92.3748 125.614 93.8397 125.492 94.3209C125.431 94.5622 125.383 94.7517 125.334 94.8856C125.202 95.2648 125.057 95.6413 124.918 96.0178C124.632 96.7867 124.336 97.5808 124.08 98.3709C124.049 98.4494 123.99 98.5132 123.914 98.5494C123.837 98.5855 123.75 98.5912 123.67 98.5653C123.59 98.5395 123.522 98.484 123.482 98.4102C123.441 98.3364 123.43 98.2498 123.451 98.1681C123.733 97.2878 124.544 92.51 123.729 91.6721C123.663 91.6045 123.575 91.5502 123.376 91.6085C123.262 91.6576 123.085 92.1176 123.083 92.4517C123.083 94.0133 122.927 96.2551 121.667 97.6882C120.489 99.0284 117.823 99.8875 117.58 99.9657C117.262 100.108 110.748 103.344 107.375 105.019Z" fill="#1A1E22"/>
</svg>
