<svg width="24" height="24" viewBox="0 0 24 24" fill="none" xmlns="http://www.w3.org/2000/svg">
<path d="M17.5 11.8365V17.1341C17.5 17.7844 16.8775 18.3135 16.1125 18.3135H9.25C8.8375 18.3135 8.5 18.0266 8.5 17.676V13.6024C8.5 12.3019 9.7375 11.25 11.2675 11.25H16.8025C17.1925 11.25 17.5 11.5114 17.5 11.8365Z" fill="#DDDFE4"/>
<path d="M23.125 19.8563C23.335 19.8563 23.5 19.9965 23.5 20.175V20.8125C23.5 21.8708 22.495 22.725 21.25 22.725C21.25 21.6731 20.2375 20.8125 19 20.8125C17.7625 20.8125 16.75 21.6731 16.75 22.725H15.25C15.25 21.6731 14.2375 20.8125 13 20.8125C11.7625 20.8125 10.75 21.6731 10.75 22.725C9.505 22.725 8.5 21.8708 8.5 20.8125V19.5375C8.5 19.1869 8.8375 18.9 9.25 18.9H16.375C17.41 18.9 18.25 18.186 18.25 17.3063V13.8C18.25 13.4494 18.5875 13.1625 19 13.1625H19.63C20.17 13.1625 20.665 13.4111 20.935 13.8064L21.415 14.5204C21.4825 14.6224 21.3925 14.7562 21.25 14.7562C20.215 14.7562 19.375 15.4702 19.375 16.35V18.2625C19.375 19.1423 20.215 19.8563 21.25 19.8563H23.125Z" fill="#DDDFE4"/>
<path d="M13 24C13.8284 24 14.5 23.4292 14.5 22.725C14.5 22.0208 13.8284 21.45 13 21.45C12.1716 21.45 11.5 22.0208 11.5 22.725C11.5 23.4292 12.1716 24 13 24Z" fill="#DDDFE4"/>
<path d="M19 24C19.8284 24 20.5 23.4292 20.5 22.725C20.5 22.0208 19.8284 21.45 19 21.45C18.1716 21.45 17.5 22.0208 17.5 22.725C17.5 23.4292 18.1716 24 19 24Z" fill="#DDDFE4"/>
<path d="M23.5 17.9629V18.9H21.25C20.8375 18.9 20.5 18.6131 20.5 18.2625V16.35C20.5 15.9994 20.8375 15.7125 21.25 15.7125H22.2175L23.305 17.3318C23.4325 17.523 23.5 17.7398 23.5 17.9629Z" fill="#DDDFE4"/>
<path d="M13.7131 4.57737C13.7131 7.10537 11.6846 9.15473 9.18238 9.15473C6.68012 9.15473 4.65164 7.10537 4.65164 4.57737C4.65164 2.04936 6.68012 0 9.18238 0C11.6846 0 13.7131 2.04936 13.7131 4.57737Z" fill="#DDDFE4"/>
<path d="M5.19262 16.8064C5.19262 16.9983 5.20567 17.1871 5.23092 17.372L7.75798 17.8259C7.75272 17.7772 7.75 17.7272 7.75 17.676V15.9653L6.0897 14.2355C5.52856 14.9386 5.19262 15.8329 5.19262 16.8064Z" fill="#DDDFE4"/>
<path d="M7.82078 12.9689C7.7745 13.1713 7.75 13.3829 7.75 13.6024V14.927L6.58678 13.7139C6.94769 13.3964 7.36469 13.1423 7.82078 12.9689Z" fill="#DDDFE4"/>
<path d="M8.56225 11.6127C6.37302 11.869 4.65191 13.3307 4.41023 15.1606C4.60574 15.32 4.82008 15.5006 4.92213 15.6037C5.125 15.8086 5.125 16.3552 5.05738 16.6284C5.00328 16.8471 4.6291 17.2661 4.44877 17.4483L3.43443 17.9265C3.02869 17.9948 2.12254 18.0768 1.74385 17.8582C1.39903 17.6591 1.21494 17.1428 1.15073 16.8457C1.05789 16.7817 1 16.6582 1 16.4235C1 13.0747 3.27854 10.224 6.46399 9.15473C7.22121 9.72934 8.16244 10.0698 9.18238 10.0698C9.20496 10.0698 9.2275 10.0697 9.25 10.0693C9.2725 10.0697 9.29504 10.0698 9.31762 10.0698C10.3376 10.0698 11.2788 9.72934 12.036 9.15473C12.9581 9.46425 13.8042 9.92305 14.5411 10.5H11.2675C10.2258 10.5 9.22745 10.9162 8.56225 11.6127Z" fill="#DDDFE4"/>
</svg>
